<svg width="56" height="56" viewBox="0 0 56 56" fill="none" xmlns="http://www.w3.org/2000/svg">
<rect width="55.6048" height="55.6048" rx="27.8024" fill="#EFF9FA"/>
<path d="M27.427 16.1897C27.5541 16.1134 27.7448 16.0753 27.999 16.0753H32.6126C32.7397 16.0753 32.8413 16.1261 32.9176 16.2278C33.0193 16.3041 33.0701 16.4058 33.0701 16.5329V42.3081C33.0701 42.4352 33.0193 42.5496 32.9176 42.6512C32.8413 42.7275 32.7397 42.7656 32.6126 42.7656H28.1515C28.0244 42.7656 27.91 42.7275 27.8083 42.6512C27.732 42.5496 27.6939 42.4352 27.6939 42.3081V21.4134C27.6939 21.3625 27.6685 21.3117 27.6177 21.2609C27.5668 21.21 27.516 21.1973 27.4651 21.2227L23.6904 22.2522L23.5379 22.2903C23.3091 22.2903 23.1947 22.1505 23.1947 21.8709L23.0803 18.5918C23.0803 18.3376 23.1947 18.1597 23.4235 18.058L27.427 16.1897Z" fill="black"/>
</svg>
