<svg width="70" height="70" viewBox="0 0 70 70" fill="none" xmlns="http://www.w3.org/2000/svg">
<rect width="70" height="70" rx="35" fill="white"/>
<path d="M34.2156 20.544C34.3756 20.448 34.6156 20.4 34.9356 20.4H40.7436C40.9036 20.4 41.0316 20.464 41.1276 20.592C41.2556 20.688 41.3196 20.816 41.3196 20.976V53.424C41.3196 53.584 41.2556 53.728 41.1276 53.856C41.0316 53.952 40.9036 54 40.7436 54H35.1276C34.9676 54 34.8236 53.952 34.6956 53.856C34.5996 53.728 34.5516 53.584 34.5516 53.424V27.12C34.5516 27.056 34.5196 26.992 34.4556 26.928C34.3916 26.864 34.3276 26.848 34.2636 26.88L29.5116 28.176L29.3196 28.224C29.0316 28.224 28.8876 28.048 28.8876 27.696L28.7436 23.568C28.7436 23.248 28.8876 23.024 29.1756 22.896L34.2156 20.544Z" fill="black"/>
</svg>
