<svg width="56" height="57" viewBox="0 0 56 57" fill="none" xmlns="http://www.w3.org/2000/svg">
<rect y="0.605469" width="55.6048" height="55.6048" rx="27.8024" fill="#EFF9FA"/>
<path d="M26.6634 38.5287C26.6126 38.5795 26.5998 38.6304 26.6253 38.6812C26.6507 38.7321 26.7015 38.7575 26.7778 38.7575H37.1107C37.2378 38.7575 37.3395 38.8083 37.4158 38.91C37.5175 38.9863 37.5683 39.0879 37.5683 39.215V42.9135C37.5683 43.0406 37.5175 43.155 37.4158 43.2567C37.3395 43.333 37.2378 43.3711 37.1107 43.3711H19.9527C19.8256 43.3711 19.7112 43.333 19.6095 43.2567C19.5333 43.155 19.4951 43.0406 19.4951 42.9135V39.4057C19.4951 39.1769 19.5714 38.9863 19.7239 38.8337C20.9695 37.6136 22.2404 36.2918 23.5368 34.8683C24.8332 33.4194 25.6466 32.517 25.9771 32.1612C26.6888 31.3223 27.4133 30.5216 28.1504 29.759C30.4636 27.1917 31.6202 25.2852 31.6202 24.0397C31.6202 23.15 31.3024 22.4255 30.6669 21.8663C30.0315 21.2817 29.2053 20.9894 28.1886 20.9894C27.1718 20.9894 26.3457 21.2817 25.7102 21.8663C25.0747 22.4255 24.7569 23.1754 24.7569 24.1159V25.0692C24.7569 25.1963 24.7061 25.3106 24.6044 25.4123C24.5282 25.4886 24.4265 25.5267 24.2994 25.5267H19.8002C19.6731 25.5267 19.5587 25.4886 19.457 25.4123C19.3807 25.3106 19.3426 25.1963 19.3426 25.0692V23.2771C19.4189 21.9044 19.851 20.697 20.639 19.6548C21.427 18.5872 22.4692 17.7738 23.7656 17.2146C25.0874 16.6554 26.5617 16.3757 28.1886 16.3757C29.9933 16.3757 31.5566 16.7189 32.8784 17.4052C34.2257 18.0661 35.2551 18.9685 35.9669 20.1124C36.704 21.2563 37.0726 22.5272 37.0726 23.9253C37.0726 24.9929 36.8057 26.0859 36.2719 27.2044C35.7381 28.3228 34.9374 29.5303 33.8698 30.8266C33.0818 31.818 32.2302 32.7966 31.3151 33.7626C30.4 34.7285 29.0401 36.1266 27.2353 37.9568L26.6634 38.5287Z" fill="black"/>
</svg>
