<svg width="70" height="70" viewBox="0 0 70 70" fill="none" xmlns="http://www.w3.org/2000/svg">
<rect width="70" height="70" rx="35" fill="white"/>
<path d="M33.2543 47.904C33.1903 47.968 33.1743 48.032 33.2063 48.096C33.2383 48.16 33.3023 48.192 33.3983 48.192H46.4063C46.5663 48.192 46.6943 48.256 46.7903 48.384C46.9183 48.48 46.9823 48.608 46.9823 48.768V53.424C46.9823 53.584 46.9183 53.728 46.7903 53.856C46.6943 53.952 46.5663 54 46.4063 54H24.8063C24.6463 54 24.5023 53.952 24.3743 53.856C24.2783 53.728 24.2303 53.584 24.2303 53.424V49.008C24.2303 48.72 24.3263 48.48 24.5183 48.288C26.0863 46.752 27.6863 45.088 29.3183 43.296C30.9503 41.472 31.9743 40.336 32.3903 39.888C33.2863 38.832 34.1983 37.824 35.1263 36.864C38.0383 33.632 39.4943 31.232 39.4943 29.664C39.4943 28.544 39.0943 27.632 38.2943 26.928C37.4943 26.192 36.4543 25.824 35.1743 25.824C33.8943 25.824 32.8543 26.192 32.0543 26.928C31.2543 27.632 30.8543 28.576 30.8543 29.76V30.96C30.8543 31.12 30.7903 31.264 30.6623 31.392C30.5663 31.488 30.4383 31.536 30.2783 31.536H24.6143C24.4543 31.536 24.3103 31.488 24.1823 31.392C24.0863 31.264 24.0383 31.12 24.0383 30.96V28.704C24.1343 26.976 24.6783 25.456 25.6703 24.144C26.6623 22.8 27.9743 21.776 29.6063 21.072C31.2703 20.368 33.1263 20.016 35.1743 20.016C37.4463 20.016 39.4143 20.448 41.0783 21.312C42.7743 22.144 44.0703 23.28 44.9663 24.72C45.8943 26.16 46.3583 27.76 46.3583 29.52C46.3583 30.864 46.0223 32.24 45.3503 33.648C44.6783 35.056 43.6703 36.576 42.3263 38.208C41.3343 39.456 40.2623 40.688 39.1103 41.904C37.9583 43.12 36.2463 44.88 33.9743 47.184L33.2543 47.904Z" fill="black"/>
</svg>
