<svg width="56" height="56" viewBox="0 0 56 56" fill="none" xmlns="http://www.w3.org/2000/svg">
<rect y="0.208984" width="55.6048" height="55.6048" rx="27.8024" fill="#EFF9FA"/>
<path d="M36.8392 30.2395C37.3476 31.4088 37.6018 32.756 37.6018 34.2812C37.6018 35.6538 37.373 36.9248 36.9155 38.0941C36.3054 39.7209 35.2759 40.9919 33.827 41.907C32.4036 42.8221 30.7132 43.2796 28.7559 43.2796C26.824 43.2796 25.1209 42.7967 23.6466 41.8307C22.1977 40.8648 21.1555 39.5557 20.52 37.9034C20.1641 36.9121 19.9608 35.8445 19.9099 34.7006C19.9099 34.3956 20.0625 34.2431 20.3675 34.2431H24.8667C25.1717 34.2431 25.3243 34.3956 25.3243 34.7006C25.4259 35.5394 25.5657 36.1622 25.7437 36.5689C25.9725 37.2298 26.341 37.7509 26.8494 38.1322C27.3832 38.4881 28.006 38.666 28.7177 38.666C30.1412 38.666 31.1199 38.0433 31.6537 36.7977C32.0096 36.0351 32.1875 35.1454 32.1875 34.1287C32.1875 32.934 31.9968 31.9553 31.6156 31.1927C31.0309 29.998 30.0523 29.4007 28.6796 29.4007C28.4 29.4007 28.1077 29.4896 27.8026 29.6676C27.4976 29.8201 27.129 30.0489 26.6969 30.3539C26.5952 30.4302 26.4936 30.4683 26.3919 30.4683C26.2394 30.4683 26.125 30.392 26.0487 30.2395L23.7991 27.0748C23.7483 26.9985 23.7228 26.9096 23.7228 26.8079C23.7228 26.6554 23.7737 26.5283 23.8754 26.4266L29.9379 21.1267C29.9887 21.0758 30.0014 21.025 29.976 20.9742C29.976 20.9233 29.9379 20.8979 29.8616 20.8979H20.9013C20.7742 20.8979 20.6598 20.8598 20.5581 20.7835C20.4819 20.6818 20.4437 20.5674 20.4437 20.4404V16.7418C20.4437 16.6147 20.4819 16.5131 20.5581 16.4368C20.6598 16.3351 20.7742 16.2843 20.9013 16.2843H36.8011C36.9282 16.2843 37.0299 16.3351 37.1061 16.4368C37.2078 16.5131 37.2587 16.6147 37.2587 16.7418V20.936C37.2587 21.1394 37.1697 21.33 36.9917 21.508L31.9968 26.0834C31.946 26.1343 31.9206 26.1851 31.9206 26.236C31.946 26.2868 32.0096 26.3122 32.1112 26.3122C34.3227 26.7444 35.8987 28.0534 36.8392 30.2395Z" fill="black"/>
</svg>
