<svg width="70" height="70" viewBox="0 0 70 70" fill="none" xmlns="http://www.w3.org/2000/svg">
<rect width="70" height="70" rx="35" fill="#EFF9FA"/>
<path d="M44.9351 37.968C45.5751 39.44 45.8951 41.136 45.8951 43.056C45.8951 44.784 45.6071 46.384 45.0311 47.856C44.2631 49.904 42.9671 51.504 41.1431 52.656C39.3511 53.808 37.2231 54.384 34.7591 54.384C32.3271 54.384 30.1831 53.776 28.3271 52.56C26.5031 51.344 25.1911 49.696 24.3911 47.616C23.9431 46.368 23.6871 45.024 23.6231 43.584C23.6231 43.2 23.8151 43.008 24.1991 43.008H29.8631C30.2471 43.008 30.4391 43.2 30.4391 43.584C30.5671 44.64 30.7431 45.424 30.9671 45.936C31.2551 46.768 31.7191 47.424 32.3591 47.904C33.0311 48.352 33.8151 48.576 34.7111 48.576C36.5031 48.576 37.7351 47.792 38.4071 46.224C38.8551 45.264 39.0791 44.144 39.0791 42.864C39.0791 41.36 38.8391 40.128 38.3591 39.168C37.6231 37.664 36.3911 36.912 34.6631 36.912C34.3111 36.912 33.9431 37.024 33.5591 37.248C33.1751 37.44 32.7111 37.728 32.1671 38.112C32.0391 38.208 31.9111 38.256 31.7831 38.256C31.5911 38.256 31.4471 38.16 31.3511 37.968L28.5191 33.984C28.4551 33.888 28.4231 33.776 28.4231 33.648C28.4231 33.456 28.4871 33.296 28.6151 33.168L36.2471 26.496C36.3111 26.432 36.3271 26.368 36.2951 26.304C36.2951 26.24 36.2471 26.208 36.1511 26.208H24.8711C24.7111 26.208 24.5671 26.16 24.4391 26.064C24.3431 25.936 24.2951 25.792 24.2951 25.632V20.976C24.2951 20.816 24.3431 20.688 24.4391 20.592C24.5671 20.464 24.7111 20.4 24.8711 20.4H44.8871C45.0471 20.4 45.1751 20.464 45.2711 20.592C45.3991 20.688 45.4631 20.816 45.4631 20.976V26.256C45.4631 26.512 45.3511 26.752 45.1271 26.976L38.8391 32.736C38.7751 32.8 38.7431 32.864 38.7431 32.928C38.7751 32.992 38.8551 33.024 38.9831 33.024C41.7671 33.568 43.7511 35.216 44.9351 37.968Z" fill="black"/>
</svg>
