<svg width="70" height="70" viewBox="0 0 70 70" fill="none" xmlns="http://www.w3.org/2000/svg">
<rect width="70" height="70" rx="35" fill="#EFF9FA"/>
<path d="M46.6768 39.36C46.8368 39.36 46.9648 39.424 47.0608 39.552C47.1888 39.648 47.2528 39.776 47.2528 39.936V44.784C47.2528 44.944 47.1888 45.088 47.0608 45.216C46.9648 45.312 46.8368 45.36 46.6768 45.36H44.6128C44.4528 45.36 44.3728 45.44 44.3728 45.6V53.424C44.3728 53.584 44.3088 53.728 44.1808 53.856C44.0848 53.952 43.9568 54 43.7968 54H38.1808C38.0208 54 37.8768 53.952 37.7488 53.856C37.6528 53.728 37.6048 53.584 37.6048 53.424V45.6C37.6048 45.44 37.5248 45.36 37.3648 45.36H22.6288C22.4688 45.36 22.3248 45.312 22.1968 45.216C22.1008 45.088 22.0527 44.944 22.0527 44.784V40.944C22.0527 40.752 22.1008 40.512 22.1968 40.224L30.8368 20.832C30.9648 20.544 31.1888 20.4 31.5088 20.4H37.5088C37.7328 20.4 37.8768 20.464 37.9408 20.592C38.0368 20.688 38.0368 20.848 37.9408 21.072L29.9248 39.072C29.8928 39.136 29.8928 39.2 29.9248 39.264C29.9568 39.328 30.0048 39.36 30.0688 39.36H37.3648C37.5248 39.36 37.6048 39.28 37.6048 39.12V33.168C37.6048 33.008 37.6528 32.88 37.7488 32.784C37.8768 32.656 38.0208 32.592 38.1808 32.592H43.7968C43.9568 32.592 44.0848 32.656 44.1808 32.784C44.3088 32.88 44.3728 33.008 44.3728 33.168V39.12C44.3728 39.28 44.4528 39.36 44.6128 39.36H46.6768Z" fill="black"/>
</svg>
