<svg width="70" height="70" viewBox="0 0 70 70" fill="none" xmlns="http://www.w3.org/2000/svg">
<rect width="70" height="70" rx="35" fill="white"/>
<path d="M45.6305 38.688C46.1105 40.256 46.3505 41.776 46.3505 43.248C46.3505 44.88 46.0945 46.352 45.5825 47.664C44.8465 49.712 43.5505 51.344 41.6945 52.56C39.8385 53.744 37.6625 54.336 35.1665 54.336C32.7345 54.336 30.5905 53.76 28.7345 52.608C26.9105 51.424 25.6145 49.824 24.8465 47.808C24.5265 46.976 24.2865 46.096 24.1265 45.168V45.072C24.1265 44.72 24.3185 44.544 24.7025 44.544H30.5105C30.8305 44.544 31.0385 44.72 31.1345 45.072C31.1665 45.264 31.2145 45.424 31.2785 45.552C31.3425 45.68 31.3905 45.792 31.4225 45.888C31.7425 46.72 32.2225 47.36 32.8625 47.808C33.5025 48.256 34.2545 48.48 35.1185 48.48C36.0145 48.48 36.7985 48.24 37.4705 47.76C38.1425 47.28 38.6385 46.608 38.9585 45.744C39.2785 45.104 39.4385 44.272 39.4385 43.248C39.4385 42.32 39.2945 41.488 39.0065 40.752C38.7825 39.92 38.3345 39.28 37.6625 38.832C36.9905 38.384 36.2065 38.16 35.3105 38.16C34.4145 38.16 33.5825 38.368 32.8145 38.784C32.0465 39.2 31.5345 39.744 31.2785 40.416C31.1825 40.736 30.9745 40.896 30.6545 40.896H24.7505C24.5905 40.896 24.4465 40.848 24.3185 40.752C24.2225 40.624 24.1745 40.48 24.1745 40.32V20.976C24.1745 20.816 24.2225 20.688 24.3185 20.592C24.4465 20.464 24.5905 20.4 24.7505 20.4H44.5745C44.7345 20.4 44.8625 20.464 44.9585 20.592C45.0865 20.688 45.1505 20.816 45.1505 20.976V25.632C45.1505 25.792 45.0865 25.936 44.9585 26.064C44.8625 26.16 44.7345 26.208 44.5745 26.208H31.1825C31.0225 26.208 30.9425 26.288 30.9425 26.448L30.8945 33.552C30.8945 33.776 30.9905 33.824 31.1825 33.696C32.6225 32.768 34.2865 32.304 36.1745 32.304C38.4145 32.304 40.3665 32.88 42.0305 34.032C43.7265 35.152 44.9265 36.704 45.6305 38.688Z" fill="black"/>
</svg>
