<svg width="62" height="62" viewBox="0 0 62 62" fill="none" xmlns="http://www.w3.org/2000/svg">
<rect width="62" height="62" rx="31" fill="#F8F8F8"/>
<path d="M21 31H28C29.7 31 31 32.3 31 34C31 35.7 29.7 37 28 37H22C21.4 37 21 36.6 21 36V26C21 25.4 21.4 25 22 25H27C28.7 25 30 26.3 30 28C30 29.7 28.7 31 27 31H21Z" stroke="#17191C" stroke-width="1.5" stroke-miterlimit="10"/>
<path d="M33 33H41C41 30.8 39.2 29 37 29C34.8 29 33 30.8 33 33ZM33 33C33 35.2 34.8 37 37 37H38.7" stroke="#17191C" stroke-width="1.5" stroke-miterlimit="10" stroke-linecap="round" stroke-linejoin="round"/>
<path d="M38.5 26.5H35.5" stroke="#17191C" stroke-width="1.5" stroke-miterlimit="10" stroke-linecap="round" stroke-linejoin="round"/>
</svg>
