<svg width="62" height="62" viewBox="0 0 62 62" fill="none" xmlns="http://www.w3.org/2000/svg">
<rect width="62" height="62" rx="31" fill="#F8F8F8"/>
<path d="M37.5 23.79C34.9 28.34 29.89 30.95 24.67 30.48L21.5 30.19" stroke="black" stroke-width="1.5" stroke-miterlimit="10" stroke-linecap="round" stroke-linejoin="round"/>
<path d="M24.5 38.3703C27.1 33.8203 32.11 31.2103 37.33 31.6803L40.5 31.9703" stroke="black" stroke-width="1.5" stroke-miterlimit="10" stroke-linecap="round" stroke-linejoin="round"/>
<path d="M31 41C36.5228 41 41 36.5228 41 31C41 25.4772 36.5228 21 31 21C25.4772 21 21 25.4772 21 31C21 36.5228 25.4772 41 31 41Z" stroke="black" stroke-width="1.5" stroke-miterlimit="10" stroke-linecap="round" stroke-linejoin="round"/>
<path d="M26.63 22L29.81 25.95C31.94 28.59 33.45 31.66 34.25 34.95L35.46 39.94" stroke="black" stroke-width="1.5" stroke-miterlimit="10" stroke-linecap="round" stroke-linejoin="round"/>
</svg>
