<svg width="17" height="16" viewBox="0 0 17 16" fill="none" xmlns="http://www.w3.org/2000/svg">
<path d="M9.14585 7.41414C9.13675 7.41414 9.1295 7.4125 9.1238 7.4102C9.11849 7.40807 9.11187 7.40433 9.10407 7.39654C9.09484 7.3873 9.08809 7.37321 9.08809 7.35477C9.08809 7.33632 9.09484 7.32223 9.10408 7.31299L14.3999 2.01716C14.4091 2.00793 14.4232 2.00117 14.4417 2.00117C14.4601 2.00117 14.4742 2.00793 14.4834 2.01716C14.4927 2.0264 14.4994 2.04049 14.4994 2.05893C14.4994 2.07737 14.4927 2.09147 14.4834 2.1007L9.18762 7.39654C9.17983 7.40433 9.1732 7.40807 9.16789 7.4102C9.1622 7.4125 9.15494 7.41414 9.14585 7.41414Z" stroke="black" stroke-width="0.85"/>
<path d="M14.434 4.64102C14.434 4.9279 14.6715 5.16539 14.9584 5.16539C15.2453 5.16539 15.4828 4.9279 15.4828 4.64102V1.54102C15.4828 1.25413 15.2453 1.01664 14.9584 1.01664H11.8584C11.5715 1.01664 11.334 1.25413 11.334 1.54102C11.334 1.8279 11.5715 2.06539 11.8584 2.06539H14.434V4.64102Z" fill="black" stroke="black" stroke-width="0.08"/>
<path d="M6.56258 14.9821H10.4376C12.1956 14.9821 13.4597 14.6066 14.2835 13.7828C15.1074 12.959 15.4828 11.6949 15.4828 9.93685V8.64518C15.4828 8.3583 15.2453 8.12081 14.9584 8.12081C14.6715 8.12081 14.434 8.3583 14.434 8.64518V9.93685C14.434 11.4227 14.1693 12.418 13.544 13.0433C12.9187 13.6686 11.9234 13.9333 10.4376 13.9333H6.56258C5.07676 13.9333 4.08148 13.6686 3.45615 13.0433C2.83083 12.418 2.56612 11.4227 2.56612 9.93685V6.06185C2.56612 4.57603 2.83083 3.58074 3.45615 2.95542C4.08148 2.3301 5.07676 2.06539 6.56258 2.06539H7.85425C8.14113 2.06539 8.37862 1.8279 8.37862 1.54102C8.37862 1.25413 8.14113 1.01664 7.85425 1.01664H6.56258C4.80455 1.01664 3.54045 1.39205 2.71661 2.21588C1.89278 3.03972 1.51737 4.30382 1.51737 6.06185V9.93685C1.51737 11.6949 1.89278 12.959 2.71661 13.7828C3.54045 14.6066 4.80455 14.9821 6.56258 14.9821Z" fill="black" stroke="black" stroke-width="0.08"/>
</svg>
