<svg width="62" height="62" viewBox="0 0 62 62" fill="none" xmlns="http://www.w3.org/2000/svg">
<rect width="62" height="62" rx="31" fill="#F8F8F8"/>
<path d="M31 21H27.7C25.8 21 24.3 22.5 24.3 24.3C24.3 26.1 25.8 27.6 27.6 27.6H31V21Z" stroke="#17191C" stroke-width="1.5" stroke-miterlimit="10"/>
<path d="M31 27.7002H27.7C25.9 27.7002 24.4 29.2002 24.4 31.0002C24.4 32.8002 25.9 34.3002 27.7 34.3002H31V27.7002Z" stroke="#17191C" stroke-width="1.5" stroke-miterlimit="10"/>
<path d="M31 34.2998H27.7C25.9 34.2998 24.4 35.7998 24.4 37.5998C24.4 39.3998 25.9 40.8998 27.7 40.8998C29.5 40.8998 31 39.3998 31 37.5998V34.2998Z" stroke="#17191C" stroke-width="1.5" stroke-miterlimit="10"/>
<path d="M31 21H34.3C36.1 21 37.6 22.5 37.6 24.3C37.6 26.1 36.1 27.6 34.3 27.6H31V21Z" stroke="#17191C" stroke-width="1.5" stroke-miterlimit="10"/>
<path d="M34.3 27.7002C36.1 27.7002 37.6 29.2002 37.6 31.0002C37.6 32.8002 36.1 34.3002 34.3 34.3002C32.5 34.3002 31 32.8002 31 31.0002C31 29.2002 32.5 27.7002 34.3 27.7002Z" stroke="#17191C" stroke-width="1.5" stroke-miterlimit="10"/>
</svg>
