<svg width="43" height="43" viewBox="0 0 43 43" fill="none" xmlns="http://www.w3.org/2000/svg">
<path d="M32.083 14.7539V17.4571C31.8006 17.4349 31.5088 17.4177 31.208 17.4047V14.7539C31.208 11.9582 30.8236 9.38937 29.272 7.532C27.6905 5.63875 25.0809 4.69141 21.1455 4.69141C17.2101 4.69141 14.6006 5.63875 13.019 7.532C11.4674 9.38937 11.083 11.9582 11.083 14.7539V17.4047C10.7822 17.4177 10.4904 17.4349 10.208 17.4571V14.7539C10.208 12.2535 10.5183 9.53433 11.9848 7.44767C13.4067 5.42453 16.0507 3.81641 21.1455 3.81641C26.2404 3.81641 28.8843 5.42453 30.3062 7.44767C31.7728 9.53433 32.083 12.2535 32.083 14.7539Z" fill="black" stroke="black" stroke-width="1.75"/>
<path d="M32.958 18.4289C32.188 18.3239 31.313 18.2714 30.333 18.2539H11.958C10.978 18.2714 10.103 18.3239 9.33301 18.4289C4.87051 18.9714 3.64551 21.1589 3.64551 27.0039V30.5039C3.64551 37.5039 5.39551 39.2539 12.3955 39.2539H29.8955C36.8955 39.2539 38.6455 37.5039 38.6455 30.5039V27.0039C38.6455 21.1589 37.4205 18.9714 32.958 18.4289ZM15.388 29.9964C15.0555 30.3114 14.6005 30.5039 14.1455 30.5039C13.918 30.5039 13.6905 30.4514 13.4805 30.3639C13.253 30.2764 13.078 30.1539 12.903 29.9964C12.588 29.6639 12.3955 29.2089 12.3955 28.7539C12.3955 28.5264 12.448 28.2989 12.5355 28.0889C12.623 27.8789 12.7455 27.6864 12.903 27.5114C13.078 27.3539 13.253 27.2314 13.4805 27.1439C14.128 26.8639 14.898 27.0214 15.388 27.5114C15.5455 27.6864 15.668 27.8789 15.7555 28.0889C15.843 28.2989 15.8955 28.5264 15.8955 28.7539C15.8955 29.2089 15.703 29.6639 15.388 29.9964ZM22.7555 29.4189C22.668 29.6289 22.5455 29.8214 22.388 29.9964C22.0555 30.3114 21.6005 30.5039 21.1455 30.5039C20.673 30.5039 20.2355 30.3114 19.903 29.9964C19.7455 29.8214 19.623 29.6289 19.5355 29.4189C19.448 29.2089 19.3955 28.9814 19.3955 28.7539C19.3955 28.2814 19.588 27.8439 19.903 27.5114C20.5505 26.8639 21.723 26.8639 22.388 27.5114C22.703 27.8439 22.8955 28.2814 22.8955 28.7539C22.8955 28.9814 22.843 29.2089 22.7555 29.4189ZM29.388 29.9964C29.0555 30.3114 28.6005 30.5039 28.1455 30.5039C27.6905 30.5039 27.2355 30.3114 26.903 29.9964C26.588 29.6639 26.3955 29.2264 26.3955 28.7539C26.3955 28.2814 26.588 27.8439 26.903 27.5114C27.568 26.8639 28.7405 26.8639 29.388 27.5114C29.458 27.5989 29.528 27.6864 29.598 27.7914C29.668 27.8789 29.7205 27.9839 29.7555 28.0889C29.808 28.1939 29.843 28.2989 29.8605 28.4039C29.878 28.5264 29.8955 28.6489 29.8955 28.7539C29.8955 29.2089 29.703 29.6639 29.388 29.9964Z" fill="black"/>
</svg>
