<svg width="70" height="70" viewBox="0 0 70 70" fill="none" xmlns="http://www.w3.org/2000/svg">
<rect width="70" height="70" rx="35" fill="#5E5E5E"/>
<path d="M41.0699 21.57L34.9999 15.5L28.9299 21.57" stroke="white" stroke-width="1.5" stroke-miterlimit="10" stroke-linecap="round" stroke-linejoin="round"/>
<path d="M35 32.4999V15.6699" stroke="white" stroke-width="1.5" stroke-miterlimit="10" stroke-linecap="round" stroke-linejoin="round"/>
<path d="M29.984 41.4C30.104 41.4 30.164 41.46 30.164 41.58V42.732C30.164 42.852 30.104 42.912 29.984 42.912H26.528C26.48 42.912 26.456 42.936 26.456 42.984V53.82C26.456 53.94 26.396 54 26.276 54H24.908C24.788 54 24.728 53.94 24.728 53.82V42.984C24.728 42.936 24.704 42.912 24.656 42.912H21.362C21.242 42.912 21.182 42.852 21.182 42.732V41.58C21.182 41.46 21.242 41.4 21.362 41.4H29.984ZM34.4845 54.144C33.5965 54.144 32.8225 53.922 32.1625 53.478C31.5025 53.022 31.0405 52.392 30.7765 51.588C30.5605 50.94 30.4525 50.208 30.4525 49.392C30.4525 48.54 30.5545 47.82 30.7585 47.232C31.0225 46.44 31.4845 45.822 32.1445 45.378C32.8045 44.922 33.5905 44.694 34.5025 44.694C35.3665 44.694 36.1165 44.922 36.7525 45.378C37.4005 45.822 37.8625 46.434 38.1385 47.214C38.3545 47.826 38.4625 48.546 38.4625 49.374C38.4625 50.214 38.3545 50.952 38.1385 51.588C37.8745 52.392 37.4185 53.022 36.7705 53.478C36.1225 53.922 35.3605 54.144 34.4845 54.144ZM34.4845 52.65C34.9645 52.65 35.3845 52.518 35.7445 52.254C36.1045 51.978 36.3625 51.594 36.5185 51.102C36.6505 50.646 36.7165 50.082 36.7165 49.41C36.7165 48.738 36.6565 48.18 36.5365 47.736C36.3805 47.244 36.1225 46.866 35.7625 46.602C35.4025 46.326 34.9645 46.188 34.4485 46.188C33.9565 46.188 33.5305 46.326 33.1705 46.602C32.8105 46.866 32.5525 47.244 32.3965 47.736C32.2645 48.156 32.1985 48.714 32.1985 49.41C32.1985 50.106 32.2645 50.67 32.3965 51.102C32.5405 51.594 32.7925 51.978 33.1525 52.254C33.5245 52.518 33.9685 52.65 34.4845 52.65ZM48.1588 47.142C48.3868 47.79 48.5008 48.558 48.5008 49.446C48.5008 50.286 48.4048 51.012 48.2128 51.624C47.9608 52.428 47.5468 53.052 46.9708 53.496C46.3948 53.928 45.6568 54.144 44.7568 54.144C44.3488 54.144 43.9588 54.066 43.5868 53.91C43.2268 53.742 42.9148 53.508 42.6508 53.208C42.6268 53.184 42.6028 53.178 42.5788 53.19C42.5668 53.202 42.5608 53.22 42.5608 53.244V57.258C42.5608 57.378 42.5008 57.438 42.3808 57.438H41.0128C40.8928 57.438 40.8328 57.378 40.8328 57.258V45.018C40.8328 44.898 40.8928 44.838 41.0128 44.838H42.3808C42.5008 44.838 42.5608 44.898 42.5608 45.018V45.612C42.5608 45.636 42.5668 45.654 42.5788 45.666C42.6028 45.678 42.6268 45.672 42.6508 45.648C42.9148 45.348 43.2268 45.114 43.5868 44.946C43.9468 44.778 44.3368 44.694 44.7568 44.694C45.6208 44.694 46.3348 44.91 46.8988 45.342C47.4748 45.762 47.8948 46.362 48.1588 47.142ZM46.1788 51.786C46.5628 51.21 46.7548 50.418 46.7548 49.41C46.7548 48.486 46.6048 47.742 46.3048 47.178C45.9568 46.518 45.3868 46.188 44.5948 46.188C43.8988 46.188 43.3708 46.512 43.0108 47.16C42.7228 47.676 42.5788 48.432 42.5788 49.428C42.5788 50.436 42.7348 51.204 43.0468 51.732C43.3948 52.344 43.9048 52.65 44.5768 52.65C45.2968 52.65 45.8308 52.362 46.1788 51.786Z" fill="white"/>
</svg>
