<svg width="130" height="137" viewBox="0 0 130 137" fill="none" xmlns="http://www.w3.org/2000/svg">
<path d="M4.91523 80.9694C2.70645 73.0616 2.11187 64.7901 3.1669 56.6476C4.22192 48.5052 6.90498 40.6584 11.0562 33.5746C15.2075 26.4909 20.742 20.3151 27.3302 15.4152C33.9183 10.5153 41.4252 6.99146 49.4038 5.05367L56.8363 35.656C52.9643 36.5964 49.3213 38.3064 46.1241 40.6844C42.9269 43.0623 40.241 46.0593 38.2264 49.497C36.2118 52.9347 34.9098 56.7428 34.3978 60.6942C33.8858 64.6457 34.1743 68.6599 35.2462 72.4975L4.91523 80.9694Z" fill="#FFD592"/>
<path d="M4.91523 80.9694C2.70645 73.0616 2.11187 64.7901 3.1669 56.6476C4.22192 48.5052 6.90498 40.6584 11.0562 33.5746C15.2075 26.4909 20.742 20.3151 27.3302 15.4152C33.9183 10.5153 41.4252 6.99146 49.4038 5.05367L56.8363 35.656C52.9643 36.5964 49.3213 38.3064 46.1241 40.6844C42.9269 43.0623 40.241 46.0593 38.2264 49.497C36.2118 52.9347 34.9098 56.7428 34.3978 60.6942C33.8858 64.6457 34.1743 68.6599 35.2462 72.4975L4.91523 80.9694Z" fill="url(#paint0_angular_8214_7904)"/>
<mask id="path-2-inside-1_8214_7904" fill="white">
<path d="M48.331 4.12997C48.0451 3.06304 48.678 1.96309 49.7533 1.71041C63.5958 -1.54254 78.1471 -0.133812 91.1333 5.75015C104.728 11.9097 115.766 22.5923 122.367 35.9778C128.968 49.3633 130.723 64.6235 127.334 79.1583C123.945 93.6931 115.621 106.603 103.781 115.689C91.9402 124.774 77.3157 129.473 62.399 128.985C47.4823 128.497 33.1965 122.851 21.9755 113.011C10.7545 103.17 3.2928 89.7434 0.861635 75.0181C-1.46076 60.9515 0.944664 46.5314 7.66949 34.0024C8.19187 33.0292 9.41813 32.7026 10.3747 33.2549L42.1351 51.5917C43.0917 52.144 43.4111 53.3642 42.9409 54.3637C40.8915 58.7202 40.2028 63.6116 40.9921 68.3925C41.8904 73.8334 44.6475 78.7945 48.7936 82.4305C52.9396 86.0665 58.2182 88.1525 63.7298 88.3329C69.2414 88.5133 74.6451 86.7771 79.0201 83.42C83.3951 80.063 86.4708 75.2928 87.723 69.9223C88.9752 64.5518 88.3266 58.9132 85.8875 53.9673C83.4485 49.0215 79.37 45.0743 74.347 42.7984C69.9333 40.7986 65.0303 40.1979 60.2919 41.0499C59.2047 41.2453 58.1088 40.621 57.8229 39.5541L48.331 4.12997Z"/>
</mask>
<path d="M48.331 4.12997C48.0451 3.06304 48.678 1.96309 49.7533 1.71041C63.5958 -1.54254 78.1471 -0.133812 91.1333 5.75015C104.728 11.9097 115.766 22.5923 122.367 35.9778C128.968 49.3633 130.723 64.6235 127.334 79.1583C123.945 93.6931 115.621 106.603 103.781 115.689C91.9402 124.774 77.3157 129.473 62.399 128.985C47.4823 128.497 33.1965 122.851 21.9755 113.011C10.7545 103.17 3.2928 89.7434 0.861635 75.0181C-1.46076 60.9515 0.944664 46.5314 7.66949 34.0024C8.19187 33.0292 9.41813 32.7026 10.3747 33.2549L42.1351 51.5917C43.0917 52.144 43.4111 53.3642 42.9409 54.3637C40.8915 58.7202 40.2028 63.6116 40.9921 68.3925C41.8904 73.8334 44.6475 78.7945 48.7936 82.4305C52.9396 86.0665 58.2182 88.1525 63.7298 88.3329C69.2414 88.5133 74.6451 86.7771 79.0201 83.42C83.3951 80.063 86.4708 75.2928 87.723 69.9223C88.9752 64.5518 88.3266 58.9132 85.8875 53.9673C83.4485 49.0215 79.37 45.0743 74.347 42.7984C69.9333 40.7986 65.0303 40.1979 60.2919 41.0499C59.2047 41.2453 58.1088 40.621 57.8229 39.5541L48.331 4.12997Z" fill="#0066FF"/>
<path d="M48.331 4.12997C48.0451 3.06304 48.678 1.96309 49.7533 1.71041C63.5958 -1.54254 78.1471 -0.133812 91.1333 5.75015C104.728 11.9097 115.766 22.5923 122.367 35.9778C128.968 49.3633 130.723 64.6235 127.334 79.1583C123.945 93.6931 115.621 106.603 103.781 115.689C91.9402 124.774 77.3157 129.473 62.399 128.985C47.4823 128.497 33.1965 122.851 21.9755 113.011C10.7545 103.17 3.2928 89.7434 0.861635 75.0181C-1.46076 60.9515 0.944664 46.5314 7.66949 34.0024C8.19187 33.0292 9.41813 32.7026 10.3747 33.2549L42.1351 51.5917C43.0917 52.144 43.4111 53.3642 42.9409 54.3637C40.8915 58.7202 40.2028 63.6116 40.9921 68.3925C41.8904 73.8334 44.6475 78.7945 48.7936 82.4305C52.9396 86.0665 58.2182 88.1525 63.7298 88.3329C69.2414 88.5133 74.6451 86.7771 79.0201 83.42C83.3951 80.063 86.4708 75.2928 87.723 69.9223C88.9752 64.5518 88.3266 58.9132 85.8875 53.9673C83.4485 49.0215 79.37 45.0743 74.347 42.7984C69.9333 40.7986 65.0303 40.1979 60.2919 41.0499C59.2047 41.2453 58.1088 40.621 57.8229 39.5541L48.331 4.12997Z" fill="url(#paint1_linear_8214_7904)"/>
<path d="M48.331 4.12997C48.0451 3.06304 48.678 1.96309 49.7533 1.71041C63.5958 -1.54254 78.1471 -0.133812 91.1333 5.75015C104.728 11.9097 115.766 22.5923 122.367 35.9778C128.968 49.3633 130.723 64.6235 127.334 79.1583C123.945 93.6931 115.621 106.603 103.781 115.689C91.9402 124.774 77.3157 129.473 62.399 128.985C47.4823 128.497 33.1965 122.851 21.9755 113.011C10.7545 103.17 3.2928 89.7434 0.861635 75.0181C-1.46076 60.9515 0.944664 46.5314 7.66949 34.0024C8.19187 33.0292 9.41813 32.7026 10.3747 33.2549L42.1351 51.5917C43.0917 52.144 43.4111 53.3642 42.9409 54.3637C40.8915 58.7202 40.2028 63.6116 40.9921 68.3925C41.8904 73.8334 44.6475 78.7945 48.7936 82.4305C52.9396 86.0665 58.2182 88.1525 63.7298 88.3329C69.2414 88.5133 74.6451 86.7771 79.0201 83.42C83.3951 80.063 86.4708 75.2928 87.723 69.9223C88.9752 64.5518 88.3266 58.9132 85.8875 53.9673C83.4485 49.0215 79.37 45.0743 74.347 42.7984C69.9333 40.7986 65.0303 40.1979 60.2919 41.0499C59.2047 41.2453 58.1088 40.621 57.8229 39.5541L48.331 4.12997Z" stroke="#DBDDE0" stroke-width="6" mask="url(#path-2-inside-1_8214_7904)"/>
<circle cx="25.3108" cy="14.6311" r="14.6311" fill="#323232"/>
<path d="M15.7368 17.6406L15.7368 13.2576L14.4588 13.2576L14.4588 12.5646C14.9928 12.5646 15.3498 12.4896 15.5298 12.3396C15.7098 12.1896 15.7998 11.9166 15.7998 11.5206L16.5468 11.5206L16.5468 17.6406L15.7368 17.6406ZM18.0307 17.6406C18.0307 16.9626 18.1477 16.4136 18.3817 15.9936C18.6157 15.5736 19.0057 15.2196 19.5517 14.9316L20.4877 14.4456C21.0517 14.1516 21.3337 13.7256 21.3337 13.1676C21.3337 12.8616 21.2347 12.6156 21.0367 12.4296C20.8387 12.2376 20.5807 12.1416 20.2627 12.1416C19.8667 12.1416 19.5577 12.2646 19.3357 12.5106C19.1197 12.7566 19.0117 13.1046 19.0117 13.5546L18.1657 13.5546C18.1657 12.9066 18.3547 12.3906 18.7327 12.0066C19.1167 11.6166 19.6267 11.4216 20.2627 11.4216C20.8567 11.4216 21.3277 11.5746 21.6757 11.8806C22.0237 12.1866 22.1977 12.6036 22.1977 13.1316C22.1977 13.9296 21.8017 14.5446 21.0097 14.9766L20.0737 15.4716C19.6957 15.6756 19.4317 15.8796 19.2817 16.0836C19.1317 16.2816 19.0357 16.5546 18.9937 16.9026L22.2067 16.9026L22.2067 17.6406L18.0307 17.6406ZM23.9647 17.7036C23.7787 17.7036 23.6227 17.6406 23.4967 17.5146C23.3707 17.3826 23.3077 17.2266 23.3077 17.0466C23.3077 16.8666 23.3707 16.7136 23.4967 16.5876C23.6227 16.4556 23.7787 16.3896 23.9647 16.3896C24.1447 16.3896 24.2977 16.4556 24.4237 16.5876C24.5557 16.7136 24.6217 16.8666 24.6217 17.0466C24.6217 17.2266 24.5557 17.3826 24.4237 17.5146C24.2977 17.6406 24.1447 17.7036 23.9647 17.7036ZM27.6263 17.7396C27.0443 17.7396 26.5613 17.5836 26.1773 17.2716C25.7933 16.9536 25.5863 16.5456 25.5563 16.0476L26.3843 16.0476C26.4023 16.3416 26.5253 16.5756 26.7533 16.7496C26.9873 16.9236 27.2813 17.0106 27.6353 17.0106C28.0553 17.0106 28.3853 16.8816 28.6253 16.6236C28.8653 16.3656 28.9853 16.0146 28.9853 15.5706C28.9853 15.1386 28.8743 14.7966 28.6523 14.5446C28.4303 14.2926 28.1273 14.1666 27.7433 14.1666C27.4073 14.1666 27.1343 14.2296 26.9243 14.3556C26.7203 14.4756 26.5583 14.6736 26.4383 14.9496L25.6733 14.9496L25.6733 11.5206L29.3993 11.5206L29.3993 12.2496L26.4203 12.2496L26.4203 14.1306C26.7323 13.7106 27.2093 13.5006 27.8513 13.5006C28.4393 13.5006 28.9073 13.6866 29.2553 14.0586C29.6033 14.4246 29.7773 14.9196 29.7773 15.5436C29.7773 16.1796 29.5793 16.7046 29.1833 17.1186C28.7873 17.5326 28.2683 17.7396 27.6263 17.7396ZM31.8216 17.7756L31.2906 17.4786L35.5386 11.3406L36.0516 11.6286L31.8216 17.7756ZM33.0996 14.0676C32.8116 14.3616 32.4276 14.5086 31.9476 14.5086C31.4676 14.5086 31.0836 14.3616 30.7956 14.0676C30.5076 13.7676 30.3636 13.4046 30.3636 12.9786C30.3636 12.5526 30.5076 12.1926 30.7956 11.8986C31.0836 11.5986 31.4676 11.4486 31.9476 11.4486C32.4276 11.4486 32.8116 11.5986 33.0996 11.8986C33.3876 12.1926 33.5316 12.5526 33.5316 12.9786C33.5316 13.4046 33.3876 13.7676 33.0996 14.0676ZM31.2906 13.6356C31.4526 13.8096 31.6716 13.8966 31.9476 13.8966C32.2236 13.8966 32.4426 13.8096 32.6046 13.6356C32.7666 13.4616 32.8476 13.2426 32.8476 12.9786C32.8476 12.7146 32.7666 12.4956 32.6046 12.3216C32.4426 12.1476 32.2236 12.0606 31.9476 12.0606C31.6716 12.0606 31.4526 12.1476 31.2906 12.3216C31.1346 12.4956 31.0566 12.7146 31.0566 12.9786C31.0566 13.2426 31.1346 13.4616 31.2906 13.6356ZM36.5826 17.2446C36.2946 17.5386 35.9106 17.6856 35.4306 17.6856C34.9506 17.6856 34.5666 17.5386 34.2786 17.2446C33.9906 16.9446 33.8466 16.5816 33.8466 16.1556C33.8466 15.7296 33.9906 15.3696 34.2786 15.0756C34.5666 14.7756 34.9506 14.6256 35.4306 14.6256C35.9106 14.6256 36.2946 14.7756 36.5826 15.0756C36.8706 15.3696 37.0146 15.7296 37.0146 16.1556C37.0146 16.5816 36.8706 16.9446 36.5826 17.2446ZM34.7736 16.8126C34.9356 16.9866 35.1546 17.0736 35.4306 17.0736C35.7066 17.0736 35.9256 16.9866 36.0876 16.8126C36.2496 16.6386 36.3306 16.4196 36.3306 16.1556C36.3306 15.8916 36.2496 15.6726 36.0876 15.4986C35.9256 15.3246 35.7066 15.2376 35.4306 15.2376C35.1546 15.2376 34.9356 15.3246 34.7736 15.4986C34.6176 15.6726 34.5396 15.8916 34.5396 16.1556C34.5396 16.4196 34.6176 16.6386 34.7736 16.8126Z" fill="white"/>
<circle cx="97.7614" cy="122.369" r="14.6311" fill="#323232"/>
<path d="M90.7559 124.992C90.3659 125.316 89.8439 125.478 89.1899 125.478C88.5359 125.478 88.0139 125.316 87.6239 124.992C87.2339 124.668 87.0389 124.236 87.0389 123.696C87.0389 123.324 87.1319 123.009 87.3179 122.751C87.5099 122.487 87.7769 122.307 88.1189 122.211C87.8129 122.115 87.5699 121.938 87.3899 121.68C87.2159 121.416 87.1289 121.116 87.1289 120.78C87.1289 120.3 87.3179 119.91 87.6959 119.61C88.0799 119.31 88.5779 119.16 89.1899 119.16C89.8019 119.16 90.2999 119.31 90.6839 119.61C91.0679 119.91 91.2599 120.3 91.2599 120.78C91.2599 121.116 91.1669 121.413 90.9809 121.671C90.8009 121.929 90.5609 122.109 90.2609 122.211C90.6029 122.307 90.8699 122.487 91.0619 122.751C91.2539 123.009 91.3499 123.324 91.3499 123.696C91.3499 124.236 91.1519 124.668 90.7559 124.992ZM89.1899 121.878C89.5679 121.878 89.8649 121.785 90.0809 121.599C90.3029 121.413 90.4139 121.167 90.4139 120.861C90.4139 120.543 90.3029 120.291 90.0809 120.105C89.8589 119.919 89.5619 119.826 89.1899 119.826C88.8179 119.826 88.5209 119.919 88.2989 120.105C88.0829 120.291 87.9749 120.543 87.9749 120.861C87.9749 121.167 88.0859 121.413 88.3079 121.599C88.5359 121.785 88.8299 121.878 89.1899 121.878ZM88.2359 124.47C88.4759 124.674 88.7939 124.776 89.1899 124.776C89.5859 124.776 89.9039 124.674 90.1439 124.47C90.3899 124.266 90.5129 123.993 90.5129 123.651C90.5129 123.309 90.3929 123.036 90.1529 122.832C89.9129 122.628 89.5919 122.526 89.1899 122.526C88.8059 122.526 88.4909 122.631 88.2449 122.841C87.9989 123.045 87.8759 123.315 87.8759 123.651C87.8759 123.993 87.9959 124.266 88.2359 124.47ZM92.0683 125.379L94.9123 120.015L91.9333 120.015L91.9333 119.259L96.1453 119.259L92.9773 125.379L92.0683 125.379ZM96.41 125.442C96.224 125.442 96.068 125.379 95.942 125.253C95.816 125.121 95.753 124.965 95.753 124.785C95.753 124.605 95.816 124.452 95.942 124.326C96.068 124.194 96.224 124.128 96.41 124.128C96.59 124.128 96.743 124.194 96.869 124.326C97.001 124.452 97.067 124.605 97.067 124.785C97.067 124.965 97.001 125.121 96.869 125.253C96.743 125.379 96.59 125.442 96.41 125.442ZM100.072 125.478C99.4896 125.478 99.0066 125.322 98.6226 125.01C98.2386 124.692 98.0316 124.284 98.0016 123.786L98.8296 123.786C98.8476 124.08 98.9706 124.314 99.1986 124.488C99.4326 124.662 99.7266 124.749 100.081 124.749C100.501 124.749 100.831 124.62 101.071 124.362C101.311 124.104 101.431 123.753 101.431 123.309C101.431 122.877 101.32 122.535 101.098 122.283C100.876 122.031 100.573 121.905 100.189 121.905C99.8526 121.905 99.5796 121.968 99.3696 122.094C99.1656 122.214 99.0036 122.412 98.8836 122.688L98.1186 122.688L98.1186 119.259L101.845 119.259L101.845 119.988L98.8656 119.988L98.8656 121.869C99.1776 121.449 99.6546 121.239 100.297 121.239C100.885 121.239 101.353 121.425 101.701 121.797C102.049 122.163 102.223 122.658 102.223 123.282C102.223 123.918 102.025 124.443 101.629 124.857C101.233 125.271 100.714 125.478 100.072 125.478ZM104.267 125.514L103.736 125.217L107.984 119.079L108.497 119.367L104.267 125.514ZM105.545 121.806C105.257 122.1 104.873 122.247 104.393 122.247C103.913 122.247 103.529 122.1 103.241 121.806C102.953 121.506 102.809 121.143 102.809 120.717C102.809 120.291 102.953 119.931 103.241 119.637C103.529 119.337 103.913 119.187 104.393 119.187C104.873 119.187 105.257 119.337 105.545 119.637C105.833 119.931 105.977 120.291 105.977 120.717C105.977 121.143 105.833 121.506 105.545 121.806ZM103.736 121.374C103.898 121.548 104.117 121.635 104.393 121.635C104.669 121.635 104.888 121.548 105.05 121.374C105.212 121.2 105.293 120.981 105.293 120.717C105.293 120.453 105.212 120.234 105.05 120.06C104.888 119.886 104.669 119.799 104.393 119.799C104.117 119.799 103.898 119.886 103.736 120.06C103.58 120.234 103.502 120.453 103.502 120.717C103.502 120.981 103.58 121.2 103.736 121.374ZM109.028 124.983C108.74 125.277 108.356 125.424 107.876 125.424C107.396 125.424 107.012 125.277 106.724 124.983C106.436 124.683 106.292 124.32 106.292 123.894C106.292 123.468 106.436 123.108 106.724 122.814C107.012 122.514 107.396 122.364 107.876 122.364C108.356 122.364 108.74 122.514 109.028 122.814C109.316 123.108 109.46 123.468 109.46 123.894C109.46 124.32 109.316 124.683 109.028 124.983ZM107.219 124.551C107.381 124.725 107.6 124.812 107.876 124.812C108.152 124.812 108.371 124.725 108.533 124.551C108.695 124.377 108.776 124.158 108.776 123.894C108.776 123.63 108.695 123.411 108.533 123.237C108.371 123.063 108.152 122.976 107.876 122.976C107.6 122.976 107.381 123.063 107.219 123.237C107.063 123.411 106.985 123.63 106.985 123.894C106.985 124.158 107.063 124.377 107.219 124.551Z" fill="white"/>
<defs>
<radialGradient id="paint0_angular_8214_7904" cx="0" cy="0" r="1" gradientUnits="userSpaceOnUse" gradientTransform="translate(63.8441 64.5097) scale(61.1845)">
<stop offset="0.5" stop-color="#FAD961"/>
<stop offset="1" stop-color="#F76B1C"/>
</radialGradient>
<linearGradient id="paint1_linear_8214_7904" x1="62.4035" y1="-58.191" x2="-62.4035" y2="66.6159" gradientUnits="userSpaceOnUse">
<stop stop-color="#CFD4FF"/>
<stop offset="1" stop-color="#2039FF"/>
</linearGradient>
</defs>
</svg>
