<svg width="135" height="137" viewBox="0 0 135 137" fill="none" xmlns="http://www.w3.org/2000/svg">
<path d="M53.3312 123.605C40.1087 120.057 28.4577 112.178 20.2421 101.227C12.0265 90.2764 7.7209 76.8865 8.01403 63.1996C8.30716 49.5126 13.1821 36.3194 21.859 25.7303C30.536 15.1411 42.5136 7.76797 55.8759 4.79015L62.7259 35.5281C56.2412 36.9732 50.4285 40.5514 46.2177 45.6902C42.0068 50.8291 39.641 57.2317 39.4988 63.8739C39.3565 70.5161 41.446 77.0141 45.433 82.3285C49.42 87.643 55.0741 91.4667 61.491 93.1881L53.3312 123.605Z" fill="#FFD592"/>
<path d="M53.3312 123.605C40.1087 120.057 28.4577 112.178 20.2421 101.227C12.0265 90.2764 7.7209 76.8865 8.01403 63.1996C8.30716 49.5126 13.1821 36.3194 21.859 25.7303C30.536 15.1411 42.5136 7.76797 55.8759 4.79015L62.7259 35.5281C56.2412 36.9732 50.4285 40.5514 46.2177 45.6902C42.0068 50.8291 39.641 57.2317 39.4988 63.8739C39.3565 70.5161 41.446 77.0141 45.433 82.3285C49.42 87.643 55.0741 91.4667 61.491 93.1881L53.3312 123.605Z" fill="url(#paint0_angular_8214_7948)"/>
<mask id="path-2-inside-1_8214_7948" fill="white">
<path d="M53.6713 4.12997C53.3855 3.06304 54.018 1.96316 55.0933 1.71049C64.1329 -0.413692 73.5329 -0.563003 82.6495 1.28254C92.4202 3.26047 101.599 7.4759 109.467 13.598C117.334 19.7201 123.676 27.5822 127.994 36.5673C132.312 45.5524 134.489 55.416 134.354 65.3839C134.219 75.3518 131.775 85.1528 127.215 94.0176C122.656 102.882 116.103 110.57 108.073 116.476C100.042 122.383 90.752 126.348 80.9314 128.061C71.7681 129.658 62.3756 129.254 53.3969 126.886C52.3289 126.604 51.7263 125.488 52.041 124.429L62.4894 89.2749C62.8041 88.2162 63.9165 87.6217 64.998 87.8466C67.9384 88.4579 70.974 88.5093 73.9445 87.9914C77.5732 87.3586 81.0059 85.8935 83.9731 83.7111C86.9403 81.5286 89.3614 78.6882 91.0462 75.4127C92.7311 72.1372 93.6339 68.5158 93.6838 64.8327C93.7337 61.1496 92.9294 57.5051 91.3339 54.1852C89.7384 50.8652 87.3952 47.9602 84.4882 45.6981C81.5813 43.4361 78.1896 41.8785 74.5794 41.1476C71.624 40.5494 68.5881 40.5185 65.6322 41.0499C64.545 41.2454 63.4491 40.621 63.1632 39.5541L53.6713 4.12997Z"/>
</mask>
<path d="M53.6713 4.12997C53.3855 3.06304 54.018 1.96316 55.0933 1.71049C64.1329 -0.413692 73.5329 -0.563003 82.6495 1.28254C92.4202 3.26047 101.599 7.4759 109.467 13.598C117.334 19.7201 123.676 27.5822 127.994 36.5673C132.312 45.5524 134.489 55.416 134.354 65.3839C134.219 75.3518 131.775 85.1528 127.215 94.0176C122.656 102.882 116.103 110.57 108.073 116.476C100.042 122.383 90.752 126.348 80.9314 128.061C71.7681 129.658 62.3756 129.254 53.3969 126.886C52.3289 126.604 51.7263 125.488 52.041 124.429L62.4894 89.2749C62.8041 88.2162 63.9165 87.6217 64.998 87.8466C67.9384 88.4579 70.974 88.5093 73.9445 87.9914C77.5732 87.3586 81.0059 85.8935 83.9731 83.7111C86.9403 81.5286 89.3614 78.6882 91.0462 75.4127C92.7311 72.1372 93.6339 68.5158 93.6838 64.8327C93.7337 61.1496 92.9294 57.5051 91.3339 54.1852C89.7384 50.8652 87.3952 47.9602 84.4882 45.6981C81.5813 43.4361 78.1896 41.8785 74.5794 41.1476C71.624 40.5494 68.5881 40.5185 65.6322 41.0499C64.545 41.2454 63.4491 40.621 63.1632 39.5541L53.6713 4.12997Z" fill="#0066FF"/>
<path d="M53.6713 4.12997C53.3855 3.06304 54.018 1.96316 55.0933 1.71049C64.1329 -0.413692 73.5329 -0.563003 82.6495 1.28254C92.4202 3.26047 101.599 7.4759 109.467 13.598C117.334 19.7201 123.676 27.5822 127.994 36.5673C132.312 45.5524 134.489 55.416 134.354 65.3839C134.219 75.3518 131.775 85.1528 127.215 94.0176C122.656 102.882 116.103 110.57 108.073 116.476C100.042 122.383 90.752 126.348 80.9314 128.061C71.7681 129.658 62.3756 129.254 53.3969 126.886C52.3289 126.604 51.7263 125.488 52.041 124.429L62.4894 89.2749C62.8041 88.2162 63.9165 87.6217 64.998 87.8466C67.9384 88.4579 70.974 88.5093 73.9445 87.9914C77.5732 87.3586 81.0059 85.8935 83.9731 83.7111C86.9403 81.5286 89.3614 78.6882 91.0462 75.4127C92.7311 72.1372 93.6339 68.5158 93.6838 64.8327C93.7337 61.1496 92.9294 57.5051 91.3339 54.1852C89.7384 50.8652 87.3952 47.9602 84.4882 45.6981C81.5813 43.4361 78.1896 41.8785 74.5794 41.1476C71.624 40.5494 68.5881 40.5185 65.6322 41.0499C64.545 41.2454 63.4491 40.621 63.1632 39.5541L53.6713 4.12997Z" fill="url(#paint1_linear_8214_7948)"/>
<path d="M53.6713 4.12997C53.3855 3.06304 54.018 1.96316 55.0933 1.71049C64.1329 -0.413692 73.5329 -0.563003 82.6495 1.28254C92.4202 3.26047 101.599 7.4759 109.467 13.598C117.334 19.7201 123.676 27.5822 127.994 36.5673C132.312 45.5524 134.489 55.416 134.354 65.3839C134.219 75.3518 131.775 85.1528 127.215 94.0176C122.656 102.882 116.103 110.57 108.073 116.476C100.042 122.383 90.752 126.348 80.9314 128.061C71.7681 129.658 62.3756 129.254 53.3969 126.886C52.3289 126.604 51.7263 125.488 52.041 124.429L62.4894 89.2749C62.8041 88.2162 63.9165 87.6217 64.998 87.8466C67.9384 88.4579 70.974 88.5093 73.9445 87.9914C77.5732 87.3586 81.0059 85.8935 83.9731 83.7111C86.9403 81.5286 89.3614 78.6882 91.0462 75.4127C92.7311 72.1372 93.6339 68.5158 93.6838 64.8327C93.7337 61.1496 92.9294 57.5051 91.3339 54.1852C89.7384 50.8652 87.3952 47.9602 84.4882 45.6981C81.5813 43.4361 78.1896 41.8785 74.5794 41.1476C71.624 40.5494 68.5881 40.5185 65.6322 41.0499C64.545 41.2454 63.4491 40.621 63.1632 39.5541L53.6713 4.12997Z" stroke="#DBDDE0" stroke-width="6" mask="url(#path-2-inside-1_8214_7948)"/>
<circle cx="14.6506" cy="39.9026" r="14.6311" fill="#323232"/>
<path d="M9.82706 43.0111C9.14306 43.0111 8.60606 42.8341 8.21606 42.4801C7.83206 42.1201 7.64006 41.6221 7.64006 40.9861L8.47706 40.9861C8.47706 41.4061 8.59406 41.7331 8.82806 41.9671C9.06806 42.1951 9.40106 42.3091 9.82706 42.3091C10.1991 42.3091 10.4991 42.2071 10.7271 42.0031C10.9611 41.7991 11.0781 41.5321 11.0781 41.2021C11.0781 40.8421 10.9671 40.5661 10.7451 40.3741C10.5231 40.1761 10.2021 40.0771 9.78206 40.0771L9.33206 40.0771L9.33206 39.3661L9.79106 39.3661C10.1631 39.3661 10.4451 39.2791 10.6371 39.1051C10.8351 38.9311 10.9341 38.6791 10.9341 38.3491C10.9341 38.0611 10.8291 37.8271 10.6191 37.6471C10.4151 37.4671 10.1451 37.3771 9.80906 37.3771C9.43706 37.3771 9.14006 37.4821 8.91806 37.6921C8.69606 37.8961 8.58506 38.1751 8.58506 38.5291L7.78406 38.5291C7.78406 37.9711 7.96706 37.5271 8.33306 37.1971C8.69906 36.8611 9.19106 36.6931 9.80906 36.6931C10.3971 36.6931 10.8711 36.8461 11.2311 37.1521C11.5911 37.4521 11.7711 37.8511 11.7711 38.3491C11.7711 39.0571 11.3991 39.5101 10.6551 39.7081C11.0211 39.7561 11.3211 39.9181 11.5551 40.1941C11.7891 40.4701 11.9061 40.8061 11.9061 41.2021C11.9061 41.7361 11.7111 42.1711 11.3211 42.5071C10.9371 42.8431 10.4391 43.0111 9.82706 43.0111ZM13.892 42.9121L13.892 38.5291L12.614 38.5291L12.614 37.8361C13.148 37.8361 13.505 37.7611 13.685 37.6111C13.865 37.4611 13.955 37.1881 13.955 36.7921L14.702 36.7921L14.702 42.9121L13.892 42.9121ZM17.347 43.0471L16.816 42.7501L21.064 36.6121L21.577 36.9001L17.347 43.0471ZM18.625 39.3391C18.337 39.6331 17.953 39.7801 17.473 39.7801C16.993 39.7801 16.609 39.6331 16.321 39.3391C16.033 39.0391 15.889 38.6761 15.889 38.2501C15.889 37.8241 16.033 37.4641 16.321 37.1701C16.609 36.8701 16.993 36.7201 17.473 36.7201C17.953 36.7201 18.337 36.8701 18.625 37.1701C18.913 37.4641 19.057 37.8241 19.057 38.2501C19.057 38.6761 18.913 39.0391 18.625 39.3391ZM16.816 38.9071C16.978 39.0811 17.197 39.1681 17.473 39.1681C17.749 39.1681 17.968 39.0811 18.13 38.9071C18.292 38.7331 18.373 38.5141 18.373 38.2501C18.373 37.9861 18.292 37.7671 18.13 37.5931C17.968 37.4191 17.749 37.3321 17.473 37.3321C17.197 37.3321 16.978 37.4191 16.816 37.5931C16.66 37.7671 16.582 37.9861 16.582 38.2501C16.582 38.5141 16.66 38.7331 16.816 38.9071ZM22.108 42.5161C21.82 42.8101 21.436 42.9571 20.956 42.9571C20.476 42.9571 20.092 42.8101 19.804 42.5161C19.516 42.2161 19.372 41.8531 19.372 41.4271C19.372 41.0011 19.516 40.6411 19.804 40.3471C20.092 40.0471 20.476 39.8971 20.956 39.8971C21.436 39.8971 21.82 40.0471 22.108 40.3471C22.396 40.6411 22.54 41.0011 22.54 41.4271C22.54 41.8531 22.396 42.2161 22.108 42.5161ZM20.299 42.0841C20.461 42.2581 20.68 42.3451 20.956 42.3451C21.232 42.3451 21.451 42.2581 21.613 42.0841C21.775 41.9101 21.856 41.6911 21.856 41.4271C21.856 41.1631 21.775 40.9441 21.613 40.7701C21.451 40.5961 21.232 40.5091 20.956 40.5091C20.68 40.5091 20.461 40.5961 20.299 40.7701C20.143 40.9441 20.065 41.1631 20.065 41.4271C20.065 41.6911 20.143 41.9101 20.299 42.0841Z" fill="white"/>
<circle cx="103.102" cy="122.369" r="14.6311" fill="#323232"/>
<path d="M98.1072 125.478C97.5252 125.478 97.0422 125.322 96.6582 125.01C96.2742 124.692 96.0672 124.284 96.0372 123.786L96.8652 123.786C96.8832 124.08 97.0062 124.314 97.2342 124.488C97.4682 124.662 97.7622 124.749 98.1162 124.749C98.5362 124.749 98.8662 124.62 99.1062 124.362C99.3462 124.104 99.4662 123.753 99.4662 123.309C99.4662 122.877 99.3552 122.535 99.1332 122.283C98.9112 122.031 98.6082 121.905 98.2242 121.905C97.8882 121.905 97.6152 121.968 97.4052 122.094C97.2012 122.214 97.0392 122.412 96.9192 122.688L96.1542 122.688L96.1542 119.259L99.8802 119.259L99.8802 119.988L96.9012 119.988L96.9012 121.869C97.2132 121.449 97.6902 121.239 98.3322 121.239C98.9202 121.239 99.3882 121.425 99.7362 121.797C100.084 122.163 100.258 122.658 100.258 123.282C100.258 123.918 100.06 124.443 99.6642 124.857C99.2682 125.271 98.7492 125.478 98.1072 125.478ZM105.044 121.338C105.044 121.836 104.912 122.277 104.648 122.661L102.722 125.379L101.741 125.379L103.118 123.507C103.07 123.513 102.992 123.516 102.884 123.516C102.224 123.516 101.696 123.309 101.3 122.895C100.91 122.481 100.715 121.962 100.715 121.338C100.715 120.714 100.91 120.195 101.3 119.781C101.696 119.361 102.224 119.151 102.884 119.151C103.538 119.151 104.06 119.361 104.45 119.781C104.846 120.195 105.044 120.714 105.044 121.338ZM101.498 121.338C101.498 121.764 101.621 122.118 101.867 122.4C102.119 122.676 102.458 122.814 102.884 122.814C103.31 122.814 103.646 122.676 103.892 122.4C104.138 122.118 104.261 121.764 104.261 121.338C104.261 120.906 104.138 120.552 103.892 120.276C103.646 119.994 103.31 119.853 102.884 119.853C102.458 119.853 102.119 119.994 101.867 120.276C101.621 120.552 101.498 120.906 101.498 121.338ZM107.066 125.514L106.535 125.217L110.783 119.079L111.296 119.367L107.066 125.514ZM108.344 121.806C108.056 122.1 107.672 122.247 107.192 122.247C106.712 122.247 106.328 122.1 106.04 121.806C105.752 121.506 105.608 121.143 105.608 120.717C105.608 120.291 105.752 119.931 106.04 119.637C106.328 119.337 106.712 119.187 107.192 119.187C107.672 119.187 108.056 119.337 108.344 119.637C108.632 119.931 108.776 120.291 108.776 120.717C108.776 121.143 108.632 121.506 108.344 121.806ZM106.535 121.374C106.697 121.548 106.916 121.635 107.192 121.635C107.468 121.635 107.687 121.548 107.849 121.374C108.011 121.2 108.092 120.981 108.092 120.717C108.092 120.453 108.011 120.234 107.849 120.06C107.687 119.886 107.468 119.799 107.192 119.799C106.916 119.799 106.697 119.886 106.535 120.06C106.379 120.234 106.301 120.453 106.301 120.717C106.301 120.981 106.379 121.2 106.535 121.374ZM111.827 124.983C111.539 125.277 111.155 125.424 110.675 125.424C110.195 125.424 109.811 125.277 109.523 124.983C109.235 124.683 109.091 124.32 109.091 123.894C109.091 123.468 109.235 123.108 109.523 122.814C109.811 122.514 110.195 122.364 110.675 122.364C111.155 122.364 111.539 122.514 111.827 122.814C112.115 123.108 112.259 123.468 112.259 123.894C112.259 124.32 112.115 124.683 111.827 124.983ZM110.018 124.551C110.18 124.725 110.399 124.812 110.675 124.812C110.951 124.812 111.17 124.725 111.332 124.551C111.494 124.377 111.575 124.158 111.575 123.894C111.575 123.63 111.494 123.411 111.332 123.237C111.17 123.063 110.951 122.976 110.675 122.976C110.399 122.976 110.18 123.063 110.018 123.237C109.862 123.411 109.784 123.63 109.784 123.894C109.784 124.158 109.862 124.377 110.018 124.551Z" fill="white"/>
<defs>
<radialGradient id="paint0_angular_8214_7948" cx="0" cy="0" r="1" gradientUnits="userSpaceOnUse" gradientTransform="translate(69.1845 64.5097) scale(61.1845)">
<stop offset="0.5" stop-color="#FAD961"/>
<stop offset="1" stop-color="#F76B1C"/>
</radialGradient>
<linearGradient id="paint1_linear_8214_7948" x1="67.7438" y1="-58.191" x2="-57.0631" y2="66.6159" gradientUnits="userSpaceOnUse">
<stop stop-color="#CFD4FF"/>
<stop offset="1" stop-color="#2039FF"/>
</linearGradient>
</defs>
</svg>
