<svg width="130" height="137" viewBox="0 0 130 137" fill="none" xmlns="http://www.w3.org/2000/svg">
<path d="M48.3503 123.605C35.1277 120.057 23.4768 112.178 15.2612 101.227C7.04554 90.2764 2.73994 76.8865 3.03307 63.1996C3.3262 49.5126 8.20113 36.3194 16.8781 25.7303C25.555 15.1411 37.5326 7.76797 50.8949 4.79015L57.7449 35.5281C51.2602 36.9732 45.4476 40.5514 41.2367 45.6902C37.0258 50.8291 34.6601 57.2317 34.5178 63.8739C34.3755 70.5161 36.465 77.0141 40.452 82.3285C44.439 87.643 50.0932 91.4667 56.51 93.1881L48.3503 123.605Z" fill="#FFD592"/>
<path d="M48.3503 123.605C35.1277 120.057 23.4768 112.178 15.2612 101.227C7.04554 90.2764 2.73994 76.8865 3.03307 63.1996C3.3262 49.5126 8.20113 36.3194 16.8781 25.7303C25.555 15.1411 37.5326 7.76797 50.8949 4.79015L57.7449 35.5281C51.2602 36.9732 45.4476 40.5514 41.2367 45.6902C37.0258 50.8291 34.6601 57.2317 34.5178 63.8739C34.3755 70.5161 36.465 77.0141 40.452 82.3285C44.439 87.643 50.0932 91.4667 56.51 93.1881L48.3503 123.605Z" fill="url(#paint0_angular_8214_7962)"/>
<mask id="path-2-inside-1_8214_7962" fill="white">
<path d="M129.379 64.5097C129.379 100.137 100.497 129.019 64.8691 129.019C29.2414 129.019 0.359375 100.137 0.359375 64.5097C0.359375 28.882 29.2414 1.72893e-09 64.8691 3.86168e-09C100.497 5.99442e-09 129.379 28.882 129.379 64.5097ZM41.0331 64.5097C41.0331 77.6739 51.7049 88.3457 64.8691 88.3457C78.0333 88.3457 88.705 77.6739 88.705 64.5097C88.705 51.3455 78.0333 40.6738 64.8691 40.6738C51.7049 40.6738 41.0331 51.3455 41.0331 64.5097Z"/>
</mask>
<path d="M129.379 64.5097C129.379 100.137 100.497 129.019 64.8691 129.019C29.2414 129.019 0.359375 100.137 0.359375 64.5097C0.359375 28.882 29.2414 1.72893e-09 64.8691 3.86168e-09C100.497 5.99442e-09 129.379 28.882 129.379 64.5097ZM41.0331 64.5097C41.0331 77.6739 51.7049 88.3457 64.8691 88.3457C78.0333 88.3457 88.705 77.6739 88.705 64.5097C88.705 51.3455 78.0333 40.6738 64.8691 40.6738C51.7049 40.6738 41.0331 51.3455 41.0331 64.5097Z" fill="#0066FF"/>
<path d="M129.379 64.5097C129.379 100.137 100.497 129.019 64.8691 129.019C29.2414 129.019 0.359375 100.137 0.359375 64.5097C0.359375 28.882 29.2414 1.72893e-09 64.8691 3.86168e-09C100.497 5.99442e-09 129.379 28.882 129.379 64.5097ZM41.0331 64.5097C41.0331 77.6739 51.7049 88.3457 64.8691 88.3457C78.0333 88.3457 88.705 77.6739 88.705 64.5097C88.705 51.3455 78.0333 40.6738 64.8691 40.6738C51.7049 40.6738 41.0331 51.3455 41.0331 64.5097Z" fill="url(#paint1_linear_8214_7962)"/>
<path d="M129.379 64.5097C129.379 100.137 100.497 129.019 64.8691 129.019C29.2414 129.019 0.359375 100.137 0.359375 64.5097C0.359375 28.882 29.2414 1.72893e-09 64.8691 3.86168e-09C100.497 5.99442e-09 129.379 28.882 129.379 64.5097ZM41.0331 64.5097C41.0331 77.6739 51.7049 88.3457 64.8691 88.3457C78.0333 88.3457 88.705 77.6739 88.705 64.5097C88.705 51.3455 78.0333 40.6738 64.8691 40.6738C51.7049 40.6738 41.0331 51.3455 41.0331 64.5097Z" stroke="#DBDDE0" stroke-width="6" mask="url(#path-2-inside-1_8214_7962)"/>
<circle cx="98.1208" cy="122.369" r="14.6311" fill="#323232"/>
<path d="M89.3676 125.379L89.3676 120.996L88.0896 120.996L88.0896 120.303C88.6236 120.303 88.9806 120.228 89.1606 120.078C89.3406 119.928 89.4306 119.655 89.4306 119.259L90.1776 119.259L90.1776 125.379L89.3676 125.379ZM95.6486 124.677C95.2586 125.211 94.6856 125.478 93.9296 125.478C93.1736 125.478 92.5976 125.211 92.2016 124.677C91.8116 124.137 91.6166 123.348 91.6166 122.31C91.6166 121.278 91.8116 120.495 92.2016 119.961C92.5976 119.421 93.1736 119.151 93.9296 119.151C94.6856 119.151 95.2586 119.421 95.6486 119.961C96.0446 120.495 96.2426 121.278 96.2426 122.31C96.2426 123.348 96.0446 124.137 95.6486 124.677ZM93.9296 124.758C94.9496 124.758 95.4596 123.942 95.4596 122.31C95.4596 120.684 94.9496 119.871 93.9296 119.871C92.9036 119.871 92.3906 120.684 92.3906 122.31C92.3906 123.942 92.9036 124.758 93.9296 124.758ZM101.142 124.677C100.752 125.211 100.179 125.478 99.4227 125.478C98.6667 125.478 98.0907 125.211 97.6947 124.677C97.3047 124.137 97.1097 123.348 97.1097 122.31C97.1097 121.278 97.3047 120.495 97.6947 119.961C98.0907 119.421 98.6667 119.151 99.4227 119.151C100.179 119.151 100.752 119.421 101.142 119.961C101.538 120.495 101.736 121.278 101.736 122.31C101.736 123.348 101.538 124.137 101.142 124.677ZM99.4227 124.758C100.443 124.758 100.953 123.942 100.953 122.31C100.953 120.684 100.443 119.871 99.4227 119.871C98.3967 119.871 97.8837 120.684 97.8837 122.31C97.8837 123.942 98.3967 124.758 99.4227 124.758ZM103.809 125.514L103.278 125.217L107.526 119.079L108.039 119.367L103.809 125.514ZM105.087 121.806C104.799 122.1 104.415 122.247 103.935 122.247C103.455 122.247 103.071 122.1 102.783 121.806C102.495 121.506 102.351 121.143 102.351 120.717C102.351 120.291 102.495 119.931 102.783 119.637C103.071 119.337 103.455 119.187 103.935 119.187C104.415 119.187 104.799 119.337 105.087 119.637C105.375 119.931 105.519 120.291 105.519 120.717C105.519 121.143 105.375 121.506 105.087 121.806ZM103.278 121.374C103.44 121.548 103.659 121.635 103.935 121.635C104.211 121.635 104.43 121.548 104.592 121.374C104.754 121.2 104.835 120.981 104.835 120.717C104.835 120.453 104.754 120.234 104.592 120.06C104.43 119.886 104.211 119.799 103.935 119.799C103.659 119.799 103.44 119.886 103.278 120.06C103.122 120.234 103.044 120.453 103.044 120.717C103.044 120.981 103.122 121.2 103.278 121.374ZM108.57 124.983C108.282 125.277 107.898 125.424 107.418 125.424C106.938 125.424 106.554 125.277 106.266 124.983C105.978 124.683 105.834 124.32 105.834 123.894C105.834 123.468 105.978 123.108 106.266 122.814C106.554 122.514 106.938 122.364 107.418 122.364C107.898 122.364 108.282 122.514 108.57 122.814C108.858 123.108 109.002 123.468 109.002 123.894C109.002 124.32 108.858 124.683 108.57 124.983ZM106.761 124.551C106.923 124.725 107.142 124.812 107.418 124.812C107.694 124.812 107.913 124.725 108.075 124.551C108.237 124.377 108.318 124.158 108.318 123.894C108.318 123.63 108.237 123.411 108.075 123.237C107.913 123.063 107.694 122.976 107.418 122.976C107.142 122.976 106.923 123.063 106.761 123.237C106.605 123.411 106.527 123.63 106.527 123.894C106.527 124.158 106.605 124.377 106.761 124.551Z" fill="white"/>
<defs>
<radialGradient id="paint0_angular_8214_7962" cx="0" cy="0" r="1" gradientUnits="userSpaceOnUse" gradientTransform="translate(64.2035 64.5097) scale(61.1845)">
<stop offset="0.5" stop-color="#FAD961"/>
<stop offset="1" stop-color="#F76B1C"/>
</radialGradient>
<linearGradient id="paint1_linear_8214_7962" x1="62.7628" y1="-58.191" x2="-62.0441" y2="66.6159" gradientUnits="userSpaceOnUse">
<stop stop-color="#CFD4FF"/>
<stop offset="1" stop-color="#2039FF"/>
</linearGradient>
</defs>
</svg>
