<svg width="135" height="137" viewBox="0 0 135 137" fill="none" xmlns="http://www.w3.org/2000/svg">
<path d="M9.89393 79.615C7.91027 71.8289 7.47963 63.7282 8.62659 55.7757C9.77355 47.8231 12.4757 40.1743 16.5786 33.266C20.6816 26.3577 26.1051 20.3252 32.5394 15.5129C38.9738 10.7006 46.293 7.20279 54.0791 5.21912L61.8539 35.7363C58.0753 36.6989 54.5234 38.3964 51.4008 40.7318C48.2783 43.0672 45.6463 45.9947 43.6551 49.3473C41.664 52.6998 40.3526 56.4118 39.796 60.2711C39.2394 64.1304 39.4484 68.0616 40.4111 71.8402L9.89393 79.615Z" fill="#FFD592"/>
<path d="M9.89393 79.615C7.91027 71.8289 7.47963 63.7282 8.62659 55.7757C9.77355 47.8231 12.4757 40.1743 16.5786 33.266C20.6816 26.3577 26.1051 20.3252 32.5394 15.5129C38.9738 10.7006 46.293 7.20279 54.0791 5.21912L61.8539 35.7363C58.0753 36.6989 54.5234 38.3964 51.4008 40.7318C48.2783 43.0672 45.6463 45.9947 43.6551 49.3473C41.664 52.6998 40.3526 56.4118 39.796 60.2711C39.2394 64.1304 39.4484 68.0616 40.4111 71.8402L9.89393 79.615Z" fill="url(#paint0_angular_8214_7931)"/>
<path d="M39.9325 118.248C32.5505 114.23 26.0756 108.734 20.9115 102.103C15.7474 95.4718 12.0048 87.8478 9.91729 79.7064L40.4224 71.8846C41.4355 75.8355 43.2517 79.5354 45.7578 82.7535C48.2639 85.9716 51.4062 88.6388 54.9886 90.5888L39.9325 118.248Z" fill="#E5E5E5"/>
<path d="M39.9325 118.248C32.5505 114.23 26.0756 108.734 20.9115 102.103C15.7474 95.4718 12.0048 87.8478 9.91729 79.7064L40.4224 71.8846C41.4355 75.8355 43.2517 79.5354 45.7578 82.7535C48.2639 85.9716 51.4062 88.6388 54.9886 90.5888L39.9325 118.248Z" fill="url(#paint1_linear_8214_7931)"/>
<mask id="path-3-inside-1_8214_7931" fill="white">
<path d="M53.6713 4.12997C53.3855 3.06304 54.018 1.96317 55.0933 1.71049C64.7536 -0.55955 74.817 -0.572265 84.4987 1.68519C94.8302 4.09417 104.408 9.01395 112.384 16.0087C120.36 23.0035 126.488 31.8574 130.225 41.7862C133.962 51.7149 135.193 62.412 133.808 72.9299C132.423 83.4478 128.466 93.4619 122.287 102.085C116.107 110.708 107.897 117.675 98.3819 122.367C88.8673 127.059 78.3423 129.332 67.7393 128.985C57.8033 128.66 48.0861 126.043 39.3425 121.35C38.3692 120.827 38.0429 119.601 38.5952 118.645L56.9321 86.8843C57.4843 85.9277 58.7045 85.6083 59.704 86.0785C62.6338 87.4566 65.8203 88.2265 69.0701 88.3329C72.9879 88.4612 76.8768 87.6212 80.3924 85.8875C83.908 84.1538 86.9418 81.5799 89.225 78.3936C91.5082 75.2074 92.9704 71.5072 93.4821 67.6209C93.9937 63.7346 93.539 59.7821 92.1583 56.1135C90.7775 52.4449 88.5133 49.1734 85.5662 46.5889C82.6191 44.0044 79.0801 42.1865 75.2626 41.2964C72.0959 40.5581 68.8187 40.477 65.6322 41.0499C64.545 41.2454 63.4491 40.621 63.1632 39.5541L53.6713 4.12997Z"/>
</mask>
<path d="M53.6713 4.12997C53.3855 3.06304 54.018 1.96317 55.0933 1.71049C64.7536 -0.55955 74.817 -0.572265 84.4987 1.68519C94.8302 4.09417 104.408 9.01395 112.384 16.0087C120.36 23.0035 126.488 31.8574 130.225 41.7862C133.962 51.7149 135.193 62.412 133.808 72.9299C132.423 83.4478 128.466 93.4619 122.287 102.085C116.107 110.708 107.897 117.675 98.3819 122.367C88.8673 127.059 78.3423 129.332 67.7393 128.985C57.8033 128.66 48.0861 126.043 39.3425 121.35C38.3692 120.827 38.0429 119.601 38.5952 118.645L56.9321 86.8843C57.4843 85.9277 58.7045 85.6083 59.704 86.0785C62.6338 87.4566 65.8203 88.2265 69.0701 88.3329C72.9879 88.4612 76.8768 87.6212 80.3924 85.8875C83.908 84.1538 86.9418 81.5799 89.225 78.3936C91.5082 75.2074 92.9704 71.5072 93.4821 67.6209C93.9937 63.7346 93.539 59.7821 92.1583 56.1135C90.7775 52.4449 88.5133 49.1734 85.5662 46.5889C82.6191 44.0044 79.0801 42.1865 75.2626 41.2964C72.0959 40.5581 68.8187 40.477 65.6322 41.0499C64.545 41.2454 63.4491 40.621 63.1632 39.5541L53.6713 4.12997Z" fill="#0066FF"/>
<path d="M53.6713 4.12997C53.3855 3.06304 54.018 1.96317 55.0933 1.71049C64.7536 -0.55955 74.817 -0.572265 84.4987 1.68519C94.8302 4.09417 104.408 9.01395 112.384 16.0087C120.36 23.0035 126.488 31.8574 130.225 41.7862C133.962 51.7149 135.193 62.412 133.808 72.9299C132.423 83.4478 128.466 93.4619 122.287 102.085C116.107 110.708 107.897 117.675 98.3819 122.367C88.8673 127.059 78.3423 129.332 67.7393 128.985C57.8033 128.66 48.0861 126.043 39.3425 121.35C38.3692 120.827 38.0429 119.601 38.5952 118.645L56.9321 86.8843C57.4843 85.9277 58.7045 85.6083 59.704 86.0785C62.6338 87.4566 65.8203 88.2265 69.0701 88.3329C72.9879 88.4612 76.8768 87.6212 80.3924 85.8875C83.908 84.1538 86.9418 81.5799 89.225 78.3936C91.5082 75.2074 92.9704 71.5072 93.4821 67.6209C93.9937 63.7346 93.539 59.7821 92.1583 56.1135C90.7775 52.4449 88.5133 49.1734 85.5662 46.5889C82.6191 44.0044 79.0801 42.1865 75.2626 41.2964C72.0959 40.5581 68.8187 40.477 65.6322 41.0499C64.545 41.2454 63.4491 40.621 63.1632 39.5541L53.6713 4.12997Z" fill="url(#paint2_linear_8214_7931)"/>
<path d="M53.6713 4.12997C53.3855 3.06304 54.018 1.96317 55.0933 1.71049C64.7536 -0.55955 74.817 -0.572265 84.4987 1.68519C94.8302 4.09417 104.408 9.01395 112.384 16.0087C120.36 23.0035 126.488 31.8574 130.225 41.7862C133.962 51.7149 135.193 62.412 133.808 72.9299C132.423 83.4478 128.466 93.4619 122.287 102.085C116.107 110.708 107.897 117.675 98.3819 122.367C88.8673 127.059 78.3423 129.332 67.7393 128.985C57.8033 128.66 48.0861 126.043 39.3425 121.35C38.3692 120.827 38.0429 119.601 38.5952 118.645L56.9321 86.8843C57.4843 85.9277 58.7045 85.6083 59.704 86.0785C62.6338 87.4566 65.8203 88.2265 69.0701 88.3329C72.9879 88.4612 76.8768 87.6212 80.3924 85.8875C83.908 84.1538 86.9418 81.5799 89.225 78.3936C91.5082 75.2074 92.9704 71.5072 93.4821 67.6209C93.9937 63.7346 93.539 59.7821 92.1583 56.1135C90.7775 52.4449 88.5133 49.1734 85.5662 46.5889C82.6191 44.0044 79.0801 42.1865 75.2626 41.2964C72.0959 40.5581 68.8187 40.477 65.6322 41.0499C64.545 41.2454 63.4491 40.621 63.1632 39.5541L53.6713 4.12997Z" stroke="#DBDDE0" stroke-width="6" mask="url(#path-3-inside-1_8214_7931)"/>
<circle cx="29.2819" cy="114.388" r="14.6311" fill="#323232"/>
<path d="M19.0419 117.397L19.0419 113.014L17.7639 113.014L17.7639 112.321C18.2979 112.321 18.6549 112.246 18.8349 112.096C19.0149 111.946 19.1049 111.673 19.1049 111.277L19.8519 111.277L19.8519 117.397L19.0419 117.397ZM21.3359 117.397C21.3359 116.719 21.4529 116.17 21.6869 115.75C21.9209 115.33 22.3109 114.976 22.8569 114.688L23.7929 114.202C24.3569 113.908 24.6389 113.482 24.6389 112.924C24.6389 112.618 24.5399 112.372 24.3419 112.186C24.1439 111.994 23.8859 111.898 23.5679 111.898C23.1719 111.898 22.8629 112.021 22.6409 112.267C22.4249 112.513 22.3169 112.861 22.3169 113.311L21.4709 113.311C21.4709 112.663 21.6599 112.147 22.0379 111.763C22.4219 111.373 22.9319 111.178 23.5679 111.178C24.1619 111.178 24.6329 111.331 24.9809 111.637C25.3289 111.943 25.5029 112.36 25.5029 112.888C25.5029 113.686 25.1069 114.301 24.3149 114.733L23.3789 115.228C23.0009 115.432 22.7369 115.636 22.5869 115.84C22.4369 116.038 22.3409 116.311 22.2989 116.659L25.5119 116.659L25.5119 117.397L21.3359 117.397ZM27.2699 117.46C27.0839 117.46 26.9279 117.397 26.8019 117.271C26.6759 117.139 26.6129 116.983 26.6129 116.803C26.6129 116.623 26.6759 116.47 26.8019 116.344C26.9279 116.212 27.0839 116.146 27.2699 116.146C27.4499 116.146 27.6029 116.212 27.7289 116.344C27.8609 116.47 27.9269 116.623 27.9269 116.803C27.9269 116.983 27.8609 117.139 27.7289 117.271C27.6029 117.397 27.4499 117.46 27.2699 117.46ZM30.9314 117.496C30.3494 117.496 29.8664 117.34 29.4824 117.028C29.0984 116.71 28.8914 116.302 28.8614 115.804L29.6894 115.804C29.7074 116.098 29.8304 116.332 30.0584 116.506C30.2924 116.68 30.5864 116.767 30.9404 116.767C31.3604 116.767 31.6904 116.638 31.9304 116.38C32.1704 116.122 32.2904 115.771 32.2904 115.327C32.2904 114.895 32.1794 114.553 31.9574 114.301C31.7354 114.049 31.4324 113.923 31.0484 113.923C30.7124 113.923 30.4394 113.986 30.2294 114.112C30.0254 114.232 29.8634 114.43 29.7434 114.706L28.9784 114.706L28.9784 111.277L32.7044 111.277L32.7044 112.006L29.7254 112.006L29.7254 113.887C30.0374 113.467 30.5144 113.257 31.1564 113.257C31.7444 113.257 32.2124 113.443 32.5604 113.815C32.9084 114.181 33.0824 114.676 33.0824 115.3C33.0824 115.936 32.8844 116.461 32.4884 116.875C32.0924 117.289 31.5734 117.496 30.9314 117.496ZM35.1268 117.532L34.5958 117.235L38.8438 111.097L39.3568 111.385L35.1268 117.532ZM36.4048 113.824C36.1168 114.118 35.7328 114.265 35.2528 114.265C34.7728 114.265 34.3888 114.118 34.1008 113.824C33.8128 113.524 33.6688 113.161 33.6688 112.735C33.6688 112.309 33.8128 111.949 34.1008 111.655C34.3888 111.355 34.7728 111.205 35.2528 111.205C35.7328 111.205 36.1168 111.355 36.4048 111.655C36.6928 111.949 36.8368 112.309 36.8368 112.735C36.8368 113.161 36.6928 113.524 36.4048 113.824ZM34.5958 113.392C34.7578 113.566 34.9768 113.653 35.2528 113.653C35.5288 113.653 35.7478 113.566 35.9098 113.392C36.0718 113.218 36.1528 112.999 36.1528 112.735C36.1528 112.471 36.0718 112.252 35.9098 112.078C35.7478 111.904 35.5288 111.817 35.2528 111.817C34.9768 111.817 34.7578 111.904 34.5958 112.078C34.4398 112.252 34.3618 112.471 34.3618 112.735C34.3618 112.999 34.4398 113.218 34.5958 113.392ZM39.8878 117.001C39.5998 117.295 39.2158 117.442 38.7358 117.442C38.2558 117.442 37.8718 117.295 37.5838 117.001C37.2958 116.701 37.1518 116.338 37.1518 115.912C37.1518 115.486 37.2958 115.126 37.5838 114.832C37.8718 114.532 38.2558 114.382 38.7358 114.382C39.2158 114.382 39.5998 114.532 39.8878 114.832C40.1758 115.126 40.3198 115.486 40.3198 115.912C40.3198 116.338 40.1758 116.701 39.8878 117.001ZM38.0788 116.569C38.2408 116.743 38.4598 116.83 38.7358 116.83C39.0118 116.83 39.2308 116.743 39.3928 116.569C39.5548 116.395 39.6358 116.176 39.6358 115.912C39.6358 115.648 39.5548 115.429 39.3928 115.255C39.2308 115.081 39.0118 114.994 38.7358 114.994C38.4598 114.994 38.2408 115.081 38.0788 115.255C37.9228 115.429 37.8448 115.648 37.8448 115.912C37.8448 116.176 37.9228 116.395 38.0788 116.569Z" fill="white"/>
<circle cx="14.6506" cy="39.9026" r="14.6311" fill="#323232"/>
<path d="M3.86714 42.9121C3.86714 42.2341 3.98414 41.6851 4.21814 41.2651C4.45214 40.8451 4.84214 40.4911 5.38814 40.2031L6.32414 39.7171C6.88814 39.4231 7.17014 38.9971 7.17014 38.4391C7.17014 38.1331 7.07114 37.8871 6.87314 37.7011C6.67514 37.5091 6.41714 37.4131 6.09914 37.4131C5.70314 37.4131 5.39414 37.5361 5.17214 37.7821C4.95614 38.0281 4.84814 38.3761 4.84814 38.8261L4.00214 38.8261C4.00214 38.1781 4.19114 37.6621 4.56914 37.2781C4.95314 36.8881 5.46314 36.6931 6.09914 36.6931C6.69314 36.6931 7.16414 36.8461 7.51214 37.1521C7.86014 37.4581 8.03414 37.8751 8.03414 38.4031C8.03414 39.2011 7.63814 39.8161 6.84614 40.2481L5.91014 40.7431C5.53214 40.9471 5.26814 41.1511 5.11814 41.3551C4.96814 41.5531 4.87214 41.8261 4.83014 42.1741L8.04314 42.1741L8.04314 42.9121L3.86714 42.9121ZM11.0369 43.0111C10.4549 43.0111 9.9719 42.8551 9.5879 42.5431C9.2039 42.2251 8.9969 41.8171 8.9669 41.3191L9.7949 41.3191C9.8129 41.6131 9.9359 41.8471 10.1639 42.0211C10.3979 42.1951 10.6919 42.2821 11.0459 42.2821C11.4659 42.2821 11.7959 42.1531 12.0359 41.8951C12.2759 41.6371 12.3959 41.2861 12.3959 40.8421C12.3959 40.4101 12.2849 40.0681 12.0629 39.8161C11.8409 39.5641 11.5379 39.4381 11.1539 39.4381C10.8179 39.4381 10.5449 39.5011 10.3349 39.6271C10.1309 39.7471 9.9689 39.9451 9.8489 40.2211L9.0839 40.2211L9.0839 36.7921L12.8099 36.7921L12.8099 37.5211L9.8309 37.5211L9.8309 39.4021C10.1429 38.9821 10.6199 38.7721 11.2619 38.7721C11.8499 38.7721 12.3179 38.9581 12.6659 39.3301C13.0139 39.6961 13.1879 40.1911 13.1879 40.8151C13.1879 41.4511 12.9899 41.9761 12.5939 42.3901C12.1979 42.8041 11.6789 43.0111 11.0369 43.0111ZM15.2322 43.0471L14.7012 42.7501L18.9492 36.6121L19.4622 36.9001L15.2322 43.0471ZM16.5102 39.3391C16.2222 39.6331 15.8382 39.7801 15.3582 39.7801C14.8782 39.7801 14.4942 39.6331 14.2062 39.3391C13.9182 39.0391 13.7742 38.6761 13.7742 38.2501C13.7742 37.8241 13.9182 37.4641 14.2062 37.1701C14.4942 36.8701 14.8782 36.7201 15.3582 36.7201C15.8382 36.7201 16.2222 36.8701 16.5102 37.1701C16.7982 37.4641 16.9422 37.8241 16.9422 38.2501C16.9422 38.6761 16.7982 39.0391 16.5102 39.3391ZM14.7012 38.9071C14.8632 39.0811 15.0822 39.1681 15.3582 39.1681C15.6342 39.1681 15.8532 39.0811 16.0152 38.9071C16.1772 38.7331 16.2582 38.5141 16.2582 38.2501C16.2582 37.9861 16.1772 37.7671 16.0152 37.5931C15.8532 37.4191 15.6342 37.3321 15.3582 37.3321C15.0822 37.3321 14.8632 37.4191 14.7012 37.5931C14.5452 37.7671 14.4672 37.9861 14.4672 38.2501C14.4672 38.5141 14.5452 38.7331 14.7012 38.9071ZM19.9932 42.5161C19.7052 42.8101 19.3212 42.9571 18.8412 42.9571C18.3612 42.9571 17.9772 42.8101 17.6892 42.5161C17.4012 42.2161 17.2572 41.8531 17.2572 41.4271C17.2572 41.0011 17.4012 40.6411 17.6892 40.3471C17.9772 40.0471 18.3612 39.8971 18.8412 39.8971C19.3212 39.8971 19.7052 40.0471 19.9932 40.3471C20.2812 40.6411 20.4252 41.0011 20.4252 41.4271C20.4252 41.8531 20.2812 42.2161 19.9932 42.5161ZM18.1842 42.0841C18.3462 42.2581 18.5652 42.3451 18.8412 42.3451C19.1172 42.3451 19.3362 42.2581 19.4982 42.0841C19.6602 41.9101 19.7412 41.6911 19.7412 41.4271C19.7412 41.1631 19.6602 40.9441 19.4982 40.7701C19.3362 40.5961 19.1172 40.5091 18.8412 40.5091C18.5652 40.5091 18.3462 40.5961 18.1842 40.7701C18.0282 40.9441 17.9502 41.1631 17.9502 41.4271C17.9502 41.6911 18.0282 41.9101 18.1842 42.0841ZM22.2459 43.0471L21.7149 42.7501L25.9629 36.6121L26.4759 36.9001L22.2459 43.0471ZM23.5239 39.3391C23.2359 39.6331 22.8519 39.7801 22.3719 39.7801C21.8919 39.7801 21.5079 39.6331 21.2199 39.3391C20.9319 39.0391 20.7879 38.6761 20.7879 38.2501C20.7879 37.8241 20.9319 37.4641 21.2199 37.1701C21.5079 36.8701 21.8919 36.7201 22.3719 36.7201C22.8519 36.7201 23.2359 36.8701 23.5239 37.1701C23.8119 37.4641 23.9559 37.8241 23.9559 38.2501C23.9559 38.6761 23.8119 39.0391 23.5239 39.3391ZM21.7149 38.9071C21.8769 39.0811 22.0959 39.1681 22.3719 39.1681C22.6479 39.1681 22.8669 39.0811 23.0289 38.9071C23.1909 38.7331 23.2719 38.5141 23.2719 38.2501C23.2719 37.9861 23.1909 37.7671 23.0289 37.5931C22.8669 37.4191 22.6479 37.3321 22.3719 37.3321C22.0959 37.3321 21.8769 37.4191 21.7149 37.5931C21.5589 37.7671 21.4809 37.9861 21.4809 38.2501C21.4809 38.5141 21.5589 38.7331 21.7149 38.9071ZM27.0069 42.5161C26.7189 42.8101 26.3349 42.9571 25.8549 42.9571C25.3749 42.9571 24.9909 42.8101 24.7029 42.5161C24.4149 42.2161 24.2709 41.8531 24.2709 41.4271C24.2709 41.0011 24.4149 40.6411 24.7029 40.3471C24.9909 40.0471 25.3749 39.8971 25.8549 39.8971C26.3349 39.8971 26.7189 40.0471 27.0069 40.3471C27.2949 40.6411 27.4389 41.0011 27.4389 41.4271C27.4389 41.8531 27.2949 42.2161 27.0069 42.5161ZM25.1979 42.0841C25.3599 42.2581 25.5789 42.3451 25.8549 42.3451C26.1309 42.3451 26.3499 42.2581 26.5119 42.0841C26.6739 41.9101 26.7549 41.6911 26.7549 41.4271C26.7549 41.1631 26.6739 40.9441 26.5119 40.7701C26.3499 40.5961 26.1309 40.5091 25.8549 40.5091C25.5789 40.5091 25.3599 40.5961 25.1979 40.7701C25.0419 40.9441 24.9639 41.1631 24.9639 41.4271C24.9639 41.6911 25.0419 41.9101 25.1979 42.0841Z" fill="white"/>
<circle cx="103.102" cy="122.369" r="14.6311" fill="#323232"/>
<path d="M98.1072 125.478C97.5252 125.478 97.0422 125.322 96.6582 125.01C96.2742 124.692 96.0672 124.284 96.0372 123.786L96.8652 123.786C96.8832 124.08 97.0062 124.314 97.2342 124.488C97.4682 124.662 97.7622 124.749 98.1162 124.749C98.5362 124.749 98.8662 124.62 99.1062 124.362C99.3462 124.104 99.4662 123.753 99.4662 123.309C99.4662 122.877 99.3552 122.535 99.1332 122.283C98.9112 122.031 98.6082 121.905 98.2242 121.905C97.8882 121.905 97.6152 121.968 97.4052 122.094C97.2012 122.214 97.0392 122.412 96.9192 122.688L96.1542 122.688L96.1542 119.259L99.8802 119.259L99.8802 119.988L96.9012 119.988L96.9012 121.869C97.2132 121.449 97.6902 121.239 98.3322 121.239C98.9202 121.239 99.3882 121.425 99.7362 121.797C100.084 122.163 100.258 122.658 100.258 123.282C100.258 123.918 100.06 124.443 99.6642 124.857C99.2682 125.271 98.7492 125.478 98.1072 125.478ZM105.044 121.338C105.044 121.836 104.912 122.277 104.648 122.661L102.722 125.379L101.741 125.379L103.118 123.507C103.07 123.513 102.992 123.516 102.884 123.516C102.224 123.516 101.696 123.309 101.3 122.895C100.91 122.481 100.715 121.962 100.715 121.338C100.715 120.714 100.91 120.195 101.3 119.781C101.696 119.361 102.224 119.151 102.884 119.151C103.538 119.151 104.06 119.361 104.45 119.781C104.846 120.195 105.044 120.714 105.044 121.338ZM101.498 121.338C101.498 121.764 101.621 122.118 101.867 122.4C102.119 122.676 102.458 122.814 102.884 122.814C103.31 122.814 103.646 122.676 103.892 122.4C104.138 122.118 104.261 121.764 104.261 121.338C104.261 120.906 104.138 120.552 103.892 120.276C103.646 119.994 103.31 119.853 102.884 119.853C102.458 119.853 102.119 119.994 101.867 120.276C101.621 120.552 101.498 120.906 101.498 121.338ZM107.066 125.514L106.535 125.217L110.783 119.079L111.296 119.367L107.066 125.514ZM108.344 121.806C108.056 122.1 107.672 122.247 107.192 122.247C106.712 122.247 106.328 122.1 106.04 121.806C105.752 121.506 105.608 121.143 105.608 120.717C105.608 120.291 105.752 119.931 106.04 119.637C106.328 119.337 106.712 119.187 107.192 119.187C107.672 119.187 108.056 119.337 108.344 119.637C108.632 119.931 108.776 120.291 108.776 120.717C108.776 121.143 108.632 121.506 108.344 121.806ZM106.535 121.374C106.697 121.548 106.916 121.635 107.192 121.635C107.468 121.635 107.687 121.548 107.849 121.374C108.011 121.2 108.092 120.981 108.092 120.717C108.092 120.453 108.011 120.234 107.849 120.06C107.687 119.886 107.468 119.799 107.192 119.799C106.916 119.799 106.697 119.886 106.535 120.06C106.379 120.234 106.301 120.453 106.301 120.717C106.301 120.981 106.379 121.2 106.535 121.374ZM111.827 124.983C111.539 125.277 111.155 125.424 110.675 125.424C110.195 125.424 109.811 125.277 109.523 124.983C109.235 124.683 109.091 124.32 109.091 123.894C109.091 123.468 109.235 123.108 109.523 122.814C109.811 122.514 110.195 122.364 110.675 122.364C111.155 122.364 111.539 122.514 111.827 122.814C112.115 123.108 112.259 123.468 112.259 123.894C112.259 124.32 112.115 124.683 111.827 124.983ZM110.018 124.551C110.18 124.725 110.399 124.812 110.675 124.812C110.951 124.812 111.17 124.725 111.332 124.551C111.494 124.377 111.575 124.158 111.575 123.894C111.575 123.63 111.494 123.411 111.332 123.237C111.17 123.063 110.951 122.976 110.675 122.976C110.399 122.976 110.18 123.063 110.018 123.237C109.862 123.411 109.784 123.63 109.784 123.894C109.784 124.158 109.862 124.377 110.018 124.551Z" fill="white"/>
<defs>
<radialGradient id="paint0_angular_8214_7931" cx="0" cy="0" r="1" gradientUnits="userSpaceOnUse" gradientTransform="translate(69.1845 64.5097) scale(61.1845)">
<stop offset="0.5" stop-color="#FAD961"/>
<stop offset="1" stop-color="#F76B1C"/>
</radialGradient>
<linearGradient id="paint1_linear_8214_7931" x1="-69.959" y1="-7.28986" x2="57.041" y2="150.21" gradientUnits="userSpaceOnUse">
<stop stop-color="#FFE0E4"/>
<stop offset="1" stop-color="#F5576C"/>
</linearGradient>
<linearGradient id="paint2_linear_8214_7931" x1="67.7438" y1="-58.191" x2="-57.0631" y2="66.6159" gradientUnits="userSpaceOnUse">
<stop stop-color="#CFD4FF"/>
<stop offset="1" stop-color="#2039FF"/>
</linearGradient>
</defs>
</svg>
