<svg width="255" height="82" viewBox="0 0 255 82" fill="none" xmlns="http://www.w3.org/2000/svg">
<path d="M18.64 42.256C17.0187 42.256 15.6 41.9573 14.384 41.36C13.1893 40.7413 12.2613 39.888 11.6 38.8C10.9387 37.6907 10.608 36.4107 10.608 34.96V32.944C10.608 32.8373 10.64 32.752 10.704 32.688C10.7893 32.6027 10.8853 32.56 10.992 32.56H14.736C14.8427 32.56 14.928 32.6027 14.992 32.688C15.0773 32.752 15.12 32.8373 15.12 32.944V34.96C15.12 35.984 15.4293 36.816 16.048 37.456C16.688 38.0747 17.552 38.384 18.64 38.384C19.6853 38.384 20.5387 38.0747 21.2 37.456C21.8827 36.816 22.224 35.984 22.224 34.96V19.984C22.224 19.8773 22.256 19.792 22.32 19.728C22.4053 19.6427 22.5013 19.6 22.608 19.6H26.32C26.4267 19.6 26.512 19.6427 26.576 19.728C26.6613 19.792 26.704 19.8773 26.704 19.984V34.96C26.704 36.4107 26.3627 37.6907 25.68 38.8C24.9973 39.888 24.048 40.7413 22.832 41.36C21.616 41.9573 20.2187 42.256 18.64 42.256ZM36.8802 25.296C38.2669 25.296 39.5043 25.5413 40.5923 26.032C41.6803 26.5013 42.5229 27.152 43.1203 27.984C43.7389 28.816 44.0483 29.744 44.0483 30.768V41.616C44.0483 41.7227 44.0056 41.8187 43.9203 41.904C43.8563 41.968 43.7709 42 43.6643 42H39.9203C39.8136 42 39.7176 41.968 39.6323 41.904C39.5683 41.8187 39.5363 41.7227 39.5363 41.616V40.56C39.5363 40.496 39.5149 40.4533 39.4723 40.432C39.4296 40.4107 39.3869 40.432 39.3443 40.496C38.4483 41.6693 37.0083 42.256 35.0243 42.256C33.3603 42.256 32.0163 41.8507 30.9923 41.04C29.9683 40.2293 29.4563 39.0347 29.4563 37.456C29.4563 35.8133 30.0323 34.544 31.1843 33.648C32.3363 32.7307 33.9789 32.272 36.1123 32.272H39.3763C39.4829 32.272 39.5363 32.2187 39.5363 32.112V31.408C39.5363 30.704 39.3229 30.16 38.8963 29.776C38.4696 29.3707 37.8296 29.168 36.9763 29.168C36.3149 29.168 35.7603 29.2853 35.3123 29.52C34.8856 29.7547 34.6083 30.0853 34.4803 30.512C34.4163 30.7467 34.2776 30.8533 34.0643 30.832L30.1923 30.32C29.9363 30.2773 29.8189 30.1813 29.8403 30.032C29.9256 29.136 30.2776 28.3253 30.8963 27.6C31.5363 26.8747 32.3683 26.3093 33.3923 25.904C34.4376 25.4987 35.6003 25.296 36.8802 25.296ZM36.2403 38.896C37.1576 38.896 37.9363 38.6507 38.5763 38.16C39.2163 37.6693 39.5363 37.04 39.5363 36.272V35.12C39.5363 35.0133 39.4829 34.96 39.3763 34.96H37.0723C36.1123 34.96 35.3549 35.1413 34.8003 35.504C34.2669 35.8667 34.0003 36.3787 34.0003 37.04C34.0003 37.616 34.2029 38.0747 34.6083 38.416C35.0136 38.736 35.5576 38.896 36.2403 38.896ZM65.4665 25.296C67.1305 25.296 68.4318 25.7973 69.3705 26.8C70.3092 27.8027 70.7785 29.2107 70.7785 31.024V41.616C70.7785 41.7227 70.7358 41.8187 70.6505 41.904C70.5865 41.968 70.5012 42 70.3945 42H66.6505C66.5438 42 66.4478 41.968 66.3625 41.904C66.2985 41.8187 66.2665 41.7227 66.2665 41.616V32.016C66.2665 31.1413 66.0425 30.448 65.5945 29.936C65.1465 29.424 64.5492 29.168 63.8025 29.168C63.0558 29.168 62.4478 29.424 61.9785 29.936C61.5092 30.448 61.2745 31.1307 61.2745 31.984V41.616C61.2745 41.7227 61.2318 41.8187 61.1465 41.904C61.0825 41.968 60.9972 42 60.8905 42H57.1785C57.0718 42 56.9758 41.968 56.8905 41.904C56.8265 41.8187 56.7945 41.7227 56.7945 41.616V32.016C56.7945 31.1627 56.5598 30.48 56.0905 29.968C55.6212 29.4347 55.0132 29.168 54.2665 29.168C53.5838 29.168 53.0078 29.3707 52.5385 29.776C52.0905 30.1813 51.8238 30.7467 51.7385 31.472V41.616C51.7385 41.7227 51.6958 41.8187 51.6105 41.904C51.5465 41.968 51.4612 42 51.3545 42H47.6105C47.5038 42 47.4078 41.968 47.3225 41.904C47.2585 41.8187 47.2265 41.7227 47.2265 41.616V25.936C47.2265 25.8293 47.2585 25.744 47.3225 25.68C47.4078 25.5947 47.5038 25.552 47.6105 25.552H51.3545C51.4612 25.552 51.5465 25.5947 51.6105 25.68C51.6958 25.744 51.7385 25.8293 51.7385 25.936V27.184C51.7385 27.248 51.7598 27.2907 51.8025 27.312C51.8452 27.3333 51.8878 27.312 51.9305 27.248C52.8052 25.9467 54.1598 25.296 55.9945 25.296C57.0612 25.296 57.9892 25.52 58.7785 25.968C59.5892 26.416 60.2078 27.056 60.6345 27.888C60.6985 28.016 60.7732 28.016 60.8585 27.888C61.3278 27.0133 61.9572 26.3627 62.7465 25.936C63.5572 25.5093 64.4638 25.296 65.4665 25.296ZM88.4115 32.08C88.5395 32.8907 88.5822 33.7973 88.5395 34.8C88.5182 35.056 88.3795 35.184 88.1235 35.184H78.2355C78.1075 35.184 78.0648 35.2373 78.1075 35.344C78.1715 35.7707 78.2888 36.1973 78.4595 36.624C79.0142 37.8187 80.1448 38.416 81.8515 38.416C83.2168 38.3947 84.2942 37.84 85.0835 36.752C85.1688 36.624 85.2648 36.56 85.3715 36.56C85.4355 36.56 85.5102 36.6027 85.5955 36.688L87.8995 38.96C88.0062 39.0667 88.0595 39.1627 88.0595 39.248C88.0595 39.2907 88.0168 39.376 87.9315 39.504C87.2275 40.3787 86.3208 41.0613 85.2115 41.552C84.1022 42.0213 82.8862 42.256 81.5635 42.256C79.7288 42.256 78.1715 41.84 76.8915 41.008C75.6328 40.176 74.7262 39.0133 74.1715 37.52C73.7235 36.4533 73.4995 35.056 73.4995 33.328C73.4995 32.1547 73.6595 31.12 73.9795 30.224C74.4702 28.7093 75.3235 27.504 76.5395 26.608C77.7768 25.712 79.2382 25.264 80.9235 25.264C83.0568 25.264 84.7635 25.8827 86.0435 27.12C87.3448 28.3573 88.1342 30.0107 88.4115 32.08ZM80.9555 29.168C79.6115 29.168 78.7262 29.7973 78.2995 31.056C78.2142 31.3333 78.1395 31.6747 78.0755 32.08C78.0755 32.1867 78.1288 32.24 78.2355 32.24H83.7715C83.8995 32.24 83.9422 32.1867 83.8995 32.08C83.7928 31.4613 83.7395 31.1627 83.7395 31.184C83.5475 30.544 83.2062 30.0533 82.7155 29.712C82.2462 29.3493 81.6595 29.168 80.9555 29.168ZM97.6615 42.224C96.2322 42.224 94.9842 42.0213 93.9175 41.616C92.8508 41.2107 92.0188 40.6453 91.4215 39.92C90.8455 39.1947 90.5575 38.3733 90.5575 37.456V37.136C90.5575 37.0293 90.5895 36.944 90.6535 36.88C90.7388 36.7947 90.8348 36.752 90.9415 36.752H94.4935C94.6002 36.752 94.6855 36.7947 94.7495 36.88C94.8348 36.944 94.8775 37.0293 94.8775 37.136V37.168C94.8775 37.6373 95.1335 38.0427 95.6455 38.384C96.1788 38.704 96.8402 38.864 97.6295 38.864C98.3548 38.864 98.9415 38.7253 99.3895 38.448C99.8375 38.1493 100.062 37.7867 100.062 37.36C100.062 36.976 99.8695 36.688 99.4855 36.496C99.1015 36.304 98.4722 36.1013 97.5975 35.888C96.5948 35.632 95.8055 35.3867 95.2295 35.152C93.8642 34.6827 92.7762 34.1067 91.9655 33.424C91.1548 32.7413 90.7495 31.76 90.7495 30.48C90.7495 28.9013 91.3575 27.6533 92.5735 26.736C93.8108 25.7973 95.4428 25.328 97.4695 25.328C98.8348 25.328 100.03 25.552 101.054 26C102.078 26.4267 102.867 27.0347 103.422 27.824C103.998 28.6133 104.286 29.5093 104.286 30.512C104.286 30.6187 104.243 30.7147 104.158 30.8C104.094 30.864 104.008 30.896 103.902 30.896H100.478C100.371 30.896 100.275 30.864 100.19 30.8C100.126 30.7147 100.094 30.6187 100.094 30.512C100.094 30.0427 99.8482 29.648 99.3575 29.328C98.8882 29.008 98.2588 28.848 97.4695 28.848C96.7655 28.848 96.1895 28.976 95.7415 29.232C95.2935 29.488 95.0695 29.84 95.0695 30.288C95.0695 30.7147 95.2828 31.0347 95.7095 31.248C96.1575 31.4613 96.8935 31.6853 97.9175 31.92C98.1522 31.984 98.4188 32.0587 98.7175 32.144C99.0162 32.208 99.3362 32.2933 99.6775 32.4C101.192 32.848 102.387 33.424 103.262 34.128C104.136 34.832 104.574 35.856 104.574 37.2C104.574 38.7787 103.944 40.016 102.686 40.912C101.448 41.7867 99.7735 42.224 97.6615 42.224ZM128.098 42C127.885 42 127.746 41.8933 127.682 41.68L126.722 38.544C126.68 38.4587 126.626 38.416 126.562 38.416H118.69C118.626 38.416 118.573 38.4587 118.53 38.544L117.602 41.68C117.538 41.8933 117.4 42 117.186 42H113.122C112.994 42 112.898 41.968 112.834 41.904C112.77 41.8187 112.76 41.7013 112.802 41.552L119.714 19.92C119.778 19.7067 119.917 19.6 120.13 19.6H125.154C125.368 19.6 125.506 19.7067 125.57 19.92L132.482 41.552C132.504 41.5947 132.514 41.648 132.514 41.712C132.514 41.904 132.397 42 132.162 42H128.098ZM119.682 34.736C119.661 34.864 119.704 34.928 119.81 34.928H125.442C125.57 34.928 125.613 34.864 125.57 34.736L122.69 25.232C122.669 25.1467 122.637 25.1147 122.594 25.136C122.552 25.136 122.52 25.168 122.498 25.232L119.682 34.736ZM144.716 19.984C144.716 19.8773 144.748 19.792 144.812 19.728C144.897 19.6427 144.993 19.6 145.1 19.6H148.844C148.95 19.6 149.036 19.6427 149.1 19.728C149.185 19.792 149.228 19.8773 149.228 19.984V41.616C149.228 41.7227 149.185 41.8187 149.1 41.904C149.036 41.968 148.95 42 148.844 42H145.1C144.993 42 144.897 41.968 144.812 41.904C144.748 41.8187 144.716 41.7227 144.716 41.616V40.56C144.716 40.496 144.694 40.464 144.652 40.464C144.609 40.4427 144.566 40.4533 144.524 40.496C143.628 41.6693 142.401 42.256 140.844 42.256C139.35 42.256 138.06 41.84 136.972 41.008C135.905 40.176 135.137 39.0347 134.668 37.584C134.305 36.4747 134.124 35.184 134.124 33.712C134.124 32.1973 134.316 30.8747 134.7 29.744C135.19 28.3787 135.958 27.3013 137.004 26.512C138.07 25.7013 139.382 25.296 140.94 25.296C142.476 25.296 143.67 25.8293 144.524 26.896C144.566 26.96 144.609 26.9813 144.652 26.96C144.694 26.9387 144.716 26.896 144.716 26.832V19.984ZM144.044 37.008C144.47 36.2187 144.684 35.1413 144.684 33.776C144.684 32.3467 144.449 31.2267 143.98 30.416C143.489 29.584 142.774 29.168 141.836 29.168C140.833 29.168 140.076 29.584 139.564 30.416C139.03 31.248 138.764 32.3787 138.764 33.808C138.764 35.088 138.988 36.1547 139.436 37.008C139.969 37.9253 140.758 38.384 141.804 38.384C142.764 38.384 143.51 37.9253 144.044 37.008ZM167.193 32.08C167.321 32.8907 167.363 33.7973 167.321 34.8C167.299 35.056 167.161 35.184 166.905 35.184H157.017C156.889 35.184 156.846 35.2373 156.889 35.344C156.953 35.7707 157.07 36.1973 157.241 36.624C157.795 37.8187 158.926 38.416 160.633 38.416C161.998 38.3947 163.075 37.84 163.865 36.752C163.95 36.624 164.046 36.56 164.153 36.56C164.217 36.56 164.291 36.6027 164.377 36.688L166.681 38.96C166.787 39.0667 166.841 39.1627 166.841 39.248C166.841 39.2907 166.798 39.376 166.713 39.504C166.009 40.3787 165.102 41.0613 163.993 41.552C162.883 42.0213 161.667 42.256 160.345 42.256C158.51 42.256 156.953 41.84 155.673 41.008C154.414 40.176 153.507 39.0133 152.953 37.52C152.505 36.4533 152.281 35.056 152.281 33.328C152.281 32.1547 152.441 31.12 152.761 30.224C153.251 28.7093 154.105 27.504 155.321 26.608C156.558 25.712 158.019 25.264 159.705 25.264C161.838 25.264 163.545 25.8827 164.825 27.12C166.126 28.3573 166.915 30.0107 167.193 32.08ZM159.737 29.168C158.393 29.168 157.507 29.7973 157.081 31.056C156.995 31.3333 156.921 31.6747 156.857 32.08C156.857 32.1867 156.91 32.24 157.017 32.24H162.553C162.681 32.24 162.723 32.1867 162.681 32.08C162.574 31.4613 162.521 31.1627 162.521 31.184C162.329 30.544 161.987 30.0533 161.497 29.712C161.027 29.3493 160.441 29.168 159.737 29.168ZM176.443 42.224C175.013 42.224 173.765 42.0213 172.699 41.616C171.632 41.2107 170.8 40.6453 170.203 39.92C169.627 39.1947 169.339 38.3733 169.339 37.456V37.136C169.339 37.0293 169.371 36.944 169.435 36.88C169.52 36.7947 169.616 36.752 169.723 36.752H173.275C173.381 36.752 173.467 36.7947 173.531 36.88C173.616 36.944 173.659 37.0293 173.659 37.136V37.168C173.659 37.6373 173.915 38.0427 174.427 38.384C174.96 38.704 175.621 38.864 176.411 38.864C177.136 38.864 177.723 38.7253 178.171 38.448C178.619 38.1493 178.843 37.7867 178.843 37.36C178.843 36.976 178.651 36.688 178.267 36.496C177.883 36.304 177.253 36.1013 176.379 35.888C175.376 35.632 174.587 35.3867 174.011 35.152C172.645 34.6827 171.557 34.1067 170.747 33.424C169.936 32.7413 169.531 31.76 169.531 30.48C169.531 28.9013 170.139 27.6533 171.355 26.736C172.592 25.7973 174.224 25.328 176.251 25.328C177.616 25.328 178.811 25.552 179.835 26C180.859 26.4267 181.648 27.0347 182.203 27.824C182.779 28.6133 183.067 29.5093 183.067 30.512C183.067 30.6187 183.024 30.7147 182.939 30.8C182.875 30.864 182.789 30.896 182.683 30.896H179.259C179.152 30.896 179.056 30.864 178.971 30.8C178.907 30.7147 178.875 30.6187 178.875 30.512C178.875 30.0427 178.629 29.648 178.139 29.328C177.669 29.008 177.04 28.848 176.251 28.848C175.547 28.848 174.971 28.976 174.523 29.232C174.075 29.488 173.851 29.84 173.851 30.288C173.851 30.7147 174.064 31.0347 174.491 31.248C174.939 31.4613 175.675 31.6853 176.699 31.92C176.933 31.984 177.2 32.0587 177.499 32.144C177.797 32.208 178.117 32.2933 178.459 32.4C179.973 32.848 181.168 33.424 182.043 34.128C182.917 34.832 183.355 35.856 183.355 37.2C183.355 38.7787 182.725 40.016 181.467 40.912C180.229 41.7867 178.555 42.224 176.443 42.224ZM194.521 25.296C196.228 25.296 197.604 25.8187 198.649 26.864C199.695 27.9093 200.217 29.328 200.217 31.12V41.616C200.217 41.7227 200.175 41.8187 200.089 41.904C200.025 41.968 199.94 42 199.833 42H196.089C195.983 42 195.887 41.968 195.801 41.904C195.737 41.8187 195.705 41.7227 195.705 41.616V32.048C195.705 31.1947 195.46 30.5013 194.969 29.968C194.5 29.4347 193.871 29.168 193.081 29.168C192.292 29.168 191.652 29.4347 191.161 29.968C190.692 30.5013 190.457 31.1947 190.457 32.048V41.616C190.457 41.7227 190.415 41.8187 190.329 41.904C190.265 41.968 190.18 42 190.073 42H186.329C186.223 42 186.127 41.968 186.041 41.904C185.977 41.8187 185.945 41.7227 185.945 41.616V19.984C185.945 19.8773 185.977 19.792 186.041 19.728C186.127 19.6427 186.223 19.6 186.329 19.6H190.073C190.18 19.6 190.265 19.6427 190.329 19.728C190.415 19.792 190.457 19.8773 190.457 19.984V27.056C190.457 27.12 190.479 27.1627 190.521 27.184C190.564 27.2053 190.596 27.1947 190.617 27.152C191.492 25.9147 192.793 25.296 194.521 25.296ZM205.877 23.696C205.152 23.696 204.544 23.4613 204.053 22.992C203.584 22.5013 203.349 21.8933 203.349 21.168C203.349 20.4213 203.584 19.8133 204.053 19.344C204.523 18.8747 205.131 18.64 205.877 18.64C206.624 18.64 207.232 18.8747 207.701 19.344C208.171 19.8133 208.405 20.4213 208.405 21.168C208.405 21.8933 208.16 22.5013 207.669 22.992C207.2 23.4613 206.603 23.696 205.877 23.696ZM203.957 42C203.851 42 203.755 41.968 203.669 41.904C203.605 41.8187 203.573 41.7227 203.573 41.616V25.904C203.573 25.7973 203.605 25.712 203.669 25.648C203.755 25.5627 203.851 25.52 203.957 25.52H207.701C207.808 25.52 207.893 25.5627 207.957 25.648C208.043 25.712 208.085 25.7973 208.085 25.904V41.616C208.085 41.7227 208.043 41.8187 207.957 41.904C207.893 41.968 207.808 42 207.701 42H203.957ZM220.178 25.296C221.884 25.296 223.26 25.8187 224.306 26.864C225.351 27.9093 225.874 29.328 225.874 31.12V41.616C225.874 41.7227 225.831 41.8187 225.746 41.904C225.682 41.968 225.596 42 225.49 42H221.746C221.639 42 221.543 41.968 221.458 41.904C221.394 41.8187 221.362 41.7227 221.362 41.616V32.048C221.362 31.1947 221.116 30.5013 220.626 29.968C220.156 29.4347 219.527 29.168 218.738 29.168C217.948 29.168 217.308 29.4347 216.818 29.968C216.348 30.5013 216.114 31.1947 216.114 32.048V41.616C216.114 41.7227 216.071 41.8187 215.986 41.904C215.922 41.968 215.836 42 215.73 42H211.986C211.879 42 211.783 41.968 211.698 41.904C211.634 41.8187 211.602 41.7227 211.602 41.616V25.936C211.602 25.8293 211.634 25.744 211.698 25.68C211.783 25.5947 211.879 25.552 211.986 25.552H215.73C215.836 25.552 215.922 25.5947 215.986 25.68C216.071 25.744 216.114 25.8293 216.114 25.936V27.056C216.114 27.12 216.135 27.1627 216.178 27.184C216.22 27.2053 216.252 27.1947 216.274 27.152C217.148 25.9147 218.45 25.296 220.178 25.296ZM235.661 25.296C237.048 25.296 238.286 25.5413 239.374 26.032C240.462 26.5013 241.304 27.152 241.902 27.984C242.52 28.816 242.83 29.744 242.83 30.768V41.616C242.83 41.7227 242.787 41.8187 242.702 41.904C242.638 41.968 242.552 42 242.446 42H238.702C238.595 42 238.499 41.968 238.414 41.904C238.35 41.8187 238.318 41.7227 238.318 41.616V40.56C238.318 40.496 238.296 40.4533 238.254 40.432C238.211 40.4107 238.168 40.432 238.126 40.496C237.23 41.6693 235.79 42.256 233.806 42.256C232.142 42.256 230.798 41.8507 229.774 41.04C228.75 40.2293 228.238 39.0347 228.238 37.456C228.238 35.8133 228.814 34.544 229.966 33.648C231.118 32.7307 232.76 32.272 234.894 32.272H238.158C238.264 32.272 238.318 32.2187 238.318 32.112V31.408C238.318 30.704 238.104 30.16 237.678 29.776C237.251 29.3707 236.611 29.168 235.758 29.168C235.096 29.168 234.542 29.2853 234.094 29.52C233.667 29.7547 233.39 30.0853 233.262 30.512C233.198 30.7467 233.059 30.8533 232.846 30.832L228.974 30.32C228.718 30.2773 228.6 30.1813 228.622 30.032C228.707 29.136 229.059 28.3253 229.678 27.6C230.318 26.8747 231.15 26.3093 232.174 25.904C233.219 25.4987 234.382 25.296 235.661 25.296ZM235.022 38.896C235.939 38.896 236.718 38.6507 237.358 38.16C237.998 37.6693 238.318 37.04 238.318 36.272V35.12C238.318 35.0133 238.264 34.96 238.158 34.96H235.854C234.894 34.96 234.136 35.1413 233.582 35.504C233.048 35.8667 232.782 36.3787 232.782 37.04C232.782 37.616 232.984 38.0747 233.39 38.416C233.795 38.736 234.339 38.896 235.022 38.896Z" fill="black"/>
<path d="M17.2 53.98C18.3733 53.98 19.3133 54.34 20.02 55.06C20.74 55.78 21.1 56.7267 21.1 57.9C21.1 59.06 20.7333 59.9933 20 60.7C19.28 61.4067 18.3267 61.76 17.14 61.76H13.24C13.1867 61.76 13.16 61.7867 13.16 61.84V67.8C13.16 67.9333 13.0933 68 12.96 68H11.94C11.8067 68 11.74 67.9333 11.74 67.8V54.18C11.74 54.0467 11.8067 53.98 11.94 53.98H17.2ZM17.04 60.58C17.8267 60.58 18.4667 60.34 18.96 59.86C19.4533 59.3667 19.7 58.72 19.7 57.92C19.7 57.1067 19.4533 56.4533 18.96 55.96C18.4667 55.4667 17.8267 55.22 17.04 55.22H13.24C13.1867 55.22 13.16 55.2467 13.16 55.3V60.5C13.16 60.5533 13.1867 60.58 13.24 60.58H17.04ZM27.5159 57.78C27.9559 57.78 28.3359 57.8667 28.6559 58.04C28.7626 58.0933 28.8026 58.18 28.7759 58.3L28.5559 59.28C28.5159 59.4133 28.4293 59.4533 28.2959 59.4C28.0693 59.3067 27.8093 59.26 27.5159 59.26L27.2559 59.28C26.5626 59.3067 25.9893 59.5667 25.5359 60.06C25.0826 60.54 24.8559 61.1533 24.8559 61.9V67.8C24.8559 67.9333 24.7893 68 24.6559 68H23.6359C23.5026 68 23.4359 67.9333 23.4359 67.8V58.08C23.4359 57.9467 23.5026 57.88 23.6359 57.88H24.6559C24.7893 57.88 24.8559 57.9467 24.8559 58.08V59.3C24.8559 59.34 24.8626 59.3667 24.8759 59.38C24.9026 59.38 24.9226 59.3667 24.9359 59.34C25.2159 58.8467 25.5693 58.4667 25.9959 58.2C26.4359 57.92 26.9426 57.78 27.5159 57.78ZM34.4834 68.16C33.5234 68.16 32.6968 67.9133 32.0034 67.42C31.3101 66.9267 30.8301 66.2467 30.5634 65.38C30.3768 64.7667 30.2834 63.9467 30.2834 62.92C30.2834 61.8933 30.3768 61.08 30.5634 60.48C30.8168 59.6267 31.2901 58.9533 31.9834 58.46C32.6768 57.9667 33.5168 57.72 34.5034 57.72C35.4501 57.72 36.2634 57.9667 36.9434 58.46C37.6368 58.9533 38.1101 59.62 38.3634 60.46C38.5501 61.0333 38.6434 61.8533 38.6434 62.92C38.6434 64 38.5501 64.82 38.3634 65.38C38.1101 66.2467 37.6368 66.9267 36.9434 67.42C36.2634 67.9133 35.4434 68.16 34.4834 68.16ZM34.4834 66.92C35.1234 66.92 35.6701 66.7467 36.1234 66.4C36.5768 66.04 36.8834 65.56 37.0434 64.96C37.1634 64.48 37.2234 63.8067 37.2234 62.94C37.2234 62.06 37.1701 61.3867 37.0634 60.92C36.9034 60.32 36.5901 59.8467 36.1234 59.5C35.6701 59.14 35.1168 58.96 34.4634 58.96C33.8101 58.96 33.2568 59.14 32.8034 59.5C32.3501 59.8467 32.0434 60.32 31.8834 60.92C31.7768 61.3867 31.7234 62.06 31.7234 62.94C31.7234 63.82 31.7768 64.4933 31.8834 64.96C32.0301 65.56 32.3301 66.04 32.7834 66.4C33.2501 66.7467 33.8168 66.92 34.4834 66.92ZM47.8019 54.2C47.8019 54.0667 47.8685 54 48.0019 54H49.0219C49.1552 54 49.2219 54.0667 49.2219 54.2V67.8C49.2219 67.9333 49.1552 68 49.0219 68H48.0019C47.8685 68 47.8019 67.9333 47.8019 67.8V66.96C47.8019 66.9333 47.7885 66.92 47.7619 66.92C47.7485 66.9067 47.7285 66.9133 47.7019 66.94C47.4085 67.3267 47.0419 67.6267 46.6019 67.84C46.1752 68.0533 45.6952 68.16 45.1619 68.16C44.2285 68.16 43.4419 67.92 42.8019 67.44C42.1752 66.96 41.7419 66.3067 41.5019 65.48C41.3152 64.88 41.2219 64.0333 41.2219 62.94C41.2219 61.8333 41.3019 61.0067 41.4619 60.46C41.7019 59.6067 42.1419 58.94 42.7819 58.46C43.4219 57.9667 44.2152 57.72 45.1619 57.72C45.6819 57.72 46.1619 57.8267 46.6019 58.04C47.0419 58.24 47.4085 58.5333 47.7019 58.92C47.7285 58.9467 47.7485 58.96 47.7619 58.96C47.7885 58.9467 47.8019 58.9267 47.8019 58.9V54.2ZM47.4419 65.38C47.5619 65.1133 47.6485 64.8 47.7019 64.44C47.7552 64.08 47.7819 63.58 47.7819 62.94C47.7819 62.3 47.7552 61.8 47.7019 61.44C47.6485 61.0667 47.5552 60.74 47.4219 60.46C47.2619 60.0067 46.9952 59.6467 46.6219 59.38C46.2619 59.1 45.8285 58.96 45.3219 58.96C44.7885 58.96 44.3285 59.0933 43.9419 59.36C43.5552 59.6267 43.2752 59.98 43.1019 60.42C42.9419 60.7133 42.8219 61.0467 42.7419 61.42C42.6752 61.78 42.6419 62.2867 42.6419 62.94C42.6419 63.5667 42.6685 64.06 42.7219 64.42C42.7752 64.7667 42.8685 65.08 43.0019 65.36C43.1619 65.84 43.4419 66.22 43.8419 66.5C44.2552 66.78 44.7419 66.92 45.3019 66.92C45.8352 66.92 46.2819 66.78 46.6419 66.5C47.0019 66.22 47.2685 65.8467 47.4419 65.38ZM58.5598 58.08C58.5598 57.9467 58.6265 57.88 58.7598 57.88H59.7798C59.9132 57.88 59.9798 57.9467 59.9798 58.08V67.8C59.9798 67.9333 59.9132 68 59.7798 68H58.7598C58.6265 68 58.5598 67.9333 58.5598 67.8V66.94C58.5598 66.9133 58.5465 66.8933 58.5198 66.88C58.4932 66.8667 58.4732 66.8733 58.4598 66.9C57.8998 67.7267 57.0132 68.14 55.7998 68.14C55.1598 68.14 54.5665 68.0133 54.0198 67.76C53.4865 67.4933 53.0598 67.1133 52.7398 66.62C52.4332 66.1267 52.2798 65.5333 52.2798 64.84V58.08C52.2798 57.9467 52.3465 57.88 52.4798 57.88H53.4998C53.6332 57.88 53.6998 57.9467 53.6998 58.08V64.42C53.6998 65.18 53.9132 65.7867 54.3398 66.24C54.7665 66.68 55.3465 66.9 56.0798 66.9C56.8398 66.9 57.4398 66.6733 57.8798 66.22C58.3332 65.7667 58.5598 65.1667 58.5598 64.42V58.08ZM66.9825 68.16C66.0225 68.16 65.1958 67.9133 64.5025 67.42C63.8225 66.9133 63.3558 66.2333 63.1025 65.38C62.9292 64.7933 62.8425 63.9667 62.8425 62.9C62.8425 61.94 62.9292 61.1267 63.1025 60.46C63.3425 59.6333 63.8092 58.9733 64.5025 58.48C65.1958 57.9733 66.0225 57.72 66.9825 57.72C67.9558 57.72 68.7958 57.9667 69.5025 58.46C70.2225 58.9533 70.6892 59.5667 70.9025 60.3C70.9692 60.54 71.0092 60.74 71.0225 60.9V60.94C71.0225 61.0333 70.9625 61.0933 70.8425 61.12L69.8425 61.26H69.8025C69.7092 61.26 69.6492 61.2 69.6225 61.08L69.5625 60.78C69.4425 60.2733 69.1492 59.8467 68.6825 59.5C68.2158 59.14 67.6492 58.96 66.9825 58.96C66.3158 58.96 65.7558 59.14 65.3025 59.5C64.8625 59.8467 64.5758 60.3133 64.4425 60.9C64.3225 61.4067 64.2625 62.08 64.2625 62.92C64.2625 63.8 64.3225 64.48 64.4425 64.96C64.5758 65.56 64.8625 66.04 65.3025 66.4C65.7558 66.7467 66.3158 66.92 66.9825 66.92C67.6358 66.92 68.1958 66.7533 68.6625 66.42C69.1425 66.0733 69.4425 65.6333 69.5625 65.1V65.02L69.5825 64.94C69.5958 64.8067 69.6758 64.7533 69.8225 64.78L70.8025 64.94C70.9358 64.9667 70.9958 65.04 70.9825 65.16L70.9025 65.56C70.7025 66.3333 70.2425 66.96 69.5225 67.44C68.8025 67.92 67.9558 68.16 66.9825 68.16ZM78.0931 58.86C78.0931 58.9933 78.0265 59.06 77.8931 59.06H75.6331C75.5798 59.06 75.5531 59.0867 75.5531 59.14V65.04C75.5531 65.68 75.6931 66.1333 75.9731 66.4C76.2665 66.6533 76.7198 66.78 77.3331 66.78H77.8331C77.9665 66.78 78.0331 66.8467 78.0331 66.98V67.8C78.0331 67.9333 77.9665 68 77.8331 68C77.6731 68.0133 77.4265 68.02 77.0931 68.02C76.1331 68.02 75.4065 67.84 74.9131 67.48C74.4198 67.12 74.1731 66.4533 74.1731 65.48V59.14C74.1731 59.0867 74.1465 59.06 74.0931 59.06H72.8731C72.7398 59.06 72.6731 58.9933 72.6731 58.86V58.08C72.6731 57.9467 72.7398 57.88 72.8731 57.88H74.0931C74.1465 57.88 74.1731 57.8533 74.1731 57.8V55.48C74.1731 55.3467 74.2398 55.28 74.3731 55.28H75.3531C75.4865 55.28 75.5531 55.3467 75.5531 55.48V57.8C75.5531 57.8533 75.5798 57.88 75.6331 57.88H77.8931C78.0265 57.88 78.0931 57.9467 78.0931 58.08V58.86ZM85.3222 68C85.1889 68 85.1222 67.9333 85.1222 67.8V54.2C85.1222 54.0667 85.1889 54 85.3222 54H90.0422C91.3622 54 92.4089 54.3467 93.1822 55.04C93.9689 55.7333 94.3622 56.6733 94.3622 57.86V64.14C94.3622 65.3267 93.9689 66.2667 93.1822 66.96C92.4089 67.6533 91.3622 68 90.0422 68H85.3222ZM86.5422 66.68C86.5422 66.7333 86.5689 66.76 86.6222 66.76H90.1022C90.9689 66.76 91.6555 66.5067 92.1622 66C92.6822 65.4933 92.9422 64.8133 92.9422 63.96V58.06C92.9422 57.1933 92.6889 56.5067 92.1822 56C91.6755 55.4933 90.9822 55.24 90.1022 55.24H86.6222C86.5689 55.24 86.5422 55.2667 86.5422 55.32V66.68ZM104.965 61.24C105.019 61.6133 105.045 62.08 105.045 62.64V63.28C105.045 63.4133 104.979 63.48 104.845 63.48H98.3855C98.3321 63.48 98.3055 63.5067 98.3055 63.56C98.3321 64.2933 98.3721 64.7667 98.4255 64.98C98.5721 65.58 98.8855 66.0533 99.3655 66.4C99.8455 66.7467 100.459 66.92 101.205 66.92C101.765 66.92 102.259 66.7933 102.685 66.54C103.112 66.2867 103.445 65.9267 103.685 65.46C103.765 65.34 103.859 65.3133 103.965 65.38L104.745 65.84C104.852 65.9067 104.879 66 104.825 66.12C104.492 66.76 103.992 67.2667 103.325 67.64C102.659 68 101.892 68.18 101.025 68.18C100.079 68.1667 99.2855 67.94 98.6455 67.5C98.0055 67.06 97.5455 66.4467 97.2655 65.66C97.0255 65.02 96.9055 64.1 96.9055 62.9C96.9055 62.34 96.9121 61.8867 96.9255 61.54C96.9521 61.18 97.0055 60.86 97.0855 60.58C97.3121 59.7133 97.7655 59.02 98.4455 58.5C99.1388 57.98 99.9721 57.72 100.945 57.72C102.159 57.72 103.092 58.0267 103.745 58.64C104.399 59.2533 104.805 60.12 104.965 61.24ZM100.945 58.96C100.292 58.96 99.7455 59.1333 99.3055 59.48C98.8788 59.8133 98.5988 60.2667 98.4655 60.84C98.3855 61.12 98.3321 61.5733 98.3055 62.2C98.3055 62.2533 98.3321 62.28 98.3855 62.28H103.565C103.619 62.28 103.645 62.2533 103.645 62.2C103.619 61.6 103.579 61.1733 103.525 60.92C103.379 60.32 103.079 59.8467 102.625 59.5C102.185 59.14 101.625 58.96 100.945 58.96ZM111.014 68.1C110.267 68.1 109.6 67.98 109.014 67.74C108.44 67.5 107.994 67.18 107.674 66.78C107.367 66.38 107.214 65.9333 107.214 65.44V65.2C107.214 65.0667 107.28 65 107.414 65H108.374C108.507 65 108.574 65.0667 108.574 65.2V65.36C108.574 65.8 108.8 66.1867 109.254 66.52C109.72 66.84 110.3 67 110.994 67C111.687 67 112.247 66.8467 112.674 66.54C113.1 66.22 113.314 65.82 113.314 65.34C113.314 65.0067 113.2 64.7333 112.974 64.52C112.76 64.3067 112.5 64.14 112.194 64.02C111.9 63.9 111.44 63.7467 110.814 63.56C110.067 63.3467 109.454 63.1333 108.974 62.92C108.494 62.7067 108.087 62.4133 107.754 62.04C107.434 61.6533 107.274 61.1667 107.274 60.58C107.274 59.7267 107.607 59.0467 108.274 58.54C108.94 58.0333 109.82 57.78 110.914 57.78C111.647 57.78 112.294 57.9 112.854 58.14C113.427 58.38 113.867 58.7133 114.174 59.14C114.48 59.5533 114.634 60.02 114.634 60.54V60.6C114.634 60.7333 114.567 60.8 114.434 60.8H113.494C113.36 60.8 113.294 60.7333 113.294 60.6V60.54C113.294 60.0867 113.074 59.7067 112.634 59.4C112.207 59.0933 111.627 58.94 110.894 58.94C110.214 58.94 109.667 59.08 109.254 59.36C108.84 59.6267 108.634 60 108.634 60.48C108.634 60.9333 108.834 61.28 109.234 61.52C109.634 61.76 110.254 62 111.094 62.24C111.867 62.4667 112.494 62.68 112.974 62.88C113.454 63.08 113.867 63.3733 114.214 63.76C114.56 64.1333 114.734 64.6267 114.734 65.24C114.734 66.1067 114.394 66.8 113.714 67.32C113.034 67.84 112.134 68.1 111.014 68.1ZM118.283 56.04C117.963 56.04 117.696 55.9333 117.483 55.72C117.269 55.5067 117.163 55.24 117.163 54.92C117.163 54.5867 117.269 54.32 117.483 54.12C117.696 53.9067 117.963 53.8 118.283 53.8C118.603 53.8 118.869 53.9067 119.083 54.12C119.296 54.32 119.403 54.5867 119.403 54.92C119.403 55.24 119.296 55.5067 119.083 55.72C118.869 55.9333 118.603 56.04 118.283 56.04ZM117.723 67.98C117.589 67.98 117.523 67.9133 117.523 67.78V58.06C117.523 57.9267 117.589 57.86 117.723 57.86H118.743C118.876 57.86 118.943 57.9267 118.943 58.06V67.78C118.943 67.9133 118.876 67.98 118.743 67.98H117.723ZM128.66 58.08C128.66 57.9467 128.727 57.88 128.86 57.88H129.88C130.014 57.88 130.08 57.9467 130.08 58.08V67.66C130.08 69.1533 129.647 70.2467 128.78 70.94C127.927 71.6333 126.747 71.98 125.24 71.98C124.934 71.98 124.7 71.9733 124.54 71.96C124.407 71.9467 124.34 71.8733 124.34 71.74L124.38 70.82C124.38 70.7533 124.4 70.7 124.44 70.66C124.48 70.6333 124.527 70.6267 124.58 70.64L125.12 70.66C126.36 70.66 127.26 70.4133 127.82 69.92C128.38 69.44 128.66 68.6733 128.66 67.62V66.88C128.66 66.8533 128.647 66.84 128.62 66.84C128.607 66.8267 128.587 66.8333 128.56 66.86C127.947 67.66 127.074 68.06 125.94 68.06C125.074 68.06 124.3 67.8267 123.62 67.36C122.954 66.8933 122.507 66.2333 122.28 65.38C122.12 64.8333 122.04 64.02 122.04 62.94C122.04 62.3533 122.054 61.86 122.08 61.46C122.12 61.06 122.194 60.7 122.3 60.38C122.54 59.58 122.974 58.94 123.6 58.46C124.227 57.9667 124.98 57.72 125.86 57.72C127.047 57.72 127.947 58.1133 128.56 58.9C128.587 58.9267 128.607 58.9333 128.62 58.92C128.647 58.9067 128.66 58.8867 128.66 58.86V58.08ZM128.56 64.94C128.6 64.74 128.627 64.4933 128.64 64.2C128.654 63.9067 128.66 63.48 128.66 62.92C128.66 62.24 128.654 61.7867 128.64 61.56C128.627 61.32 128.594 61.1 128.54 60.9C128.434 60.34 128.167 59.88 127.74 59.52C127.327 59.1467 126.8 58.96 126.16 58.96C125.534 58.96 125 59.14 124.56 59.5C124.134 59.86 123.834 60.3267 123.66 60.9C123.527 61.3267 123.46 61.9933 123.46 62.9C123.46 63.8733 123.527 64.5467 123.66 64.92C123.794 65.48 124.08 65.9467 124.52 66.32C124.974 66.68 125.52 66.86 126.16 66.86C126.814 66.86 127.347 66.68 127.76 66.32C128.187 65.96 128.454 65.5 128.56 64.94ZM137.323 57.74C138.39 57.74 139.237 58.0533 139.863 58.68C140.503 59.3067 140.823 60.1467 140.823 61.2V67.8C140.823 67.9333 140.757 68 140.623 68H139.603C139.47 68 139.403 67.9333 139.403 67.8V61.48C139.403 60.7467 139.177 60.1467 138.723 59.68C138.283 59.2133 137.71 58.98 137.003 58.98C136.27 58.98 135.677 59.2067 135.223 59.66C134.77 60.1133 134.543 60.7067 134.543 61.44V67.8C134.543 67.9333 134.477 68 134.343 68H133.323C133.19 68 133.123 67.9333 133.123 67.8V58.08C133.123 57.9467 133.19 57.88 133.323 57.88H134.343C134.477 57.88 134.543 57.9467 134.543 58.08V58.94C134.543 58.9667 134.55 58.9867 134.563 59C134.59 59.0133 134.61 59.0067 134.623 58.98C135.21 58.1533 136.11 57.74 137.323 57.74ZM151.528 61.24C151.581 61.6133 151.608 62.08 151.608 62.64V63.28C151.608 63.4133 151.541 63.48 151.408 63.48H144.948C144.895 63.48 144.868 63.5067 144.868 63.56C144.895 64.2933 144.935 64.7667 144.988 64.98C145.135 65.58 145.448 66.0533 145.928 66.4C146.408 66.7467 147.021 66.92 147.768 66.92C148.328 66.92 148.821 66.7933 149.248 66.54C149.675 66.2867 150.008 65.9267 150.248 65.46C150.328 65.34 150.421 65.3133 150.528 65.38L151.308 65.84C151.415 65.9067 151.441 66 151.388 66.12C151.055 66.76 150.555 67.2667 149.888 67.64C149.221 68 148.455 68.18 147.588 68.18C146.641 68.1667 145.848 67.94 145.208 67.5C144.568 67.06 144.108 66.4467 143.828 65.66C143.588 65.02 143.468 64.1 143.468 62.9C143.468 62.34 143.475 61.8867 143.488 61.54C143.515 61.18 143.568 60.86 143.648 60.58C143.875 59.7133 144.328 59.02 145.008 58.5C145.701 57.98 146.535 57.72 147.508 57.72C148.721 57.72 149.655 58.0267 150.308 58.64C150.961 59.2533 151.368 60.12 151.528 61.24ZM147.508 58.96C146.855 58.96 146.308 59.1333 145.868 59.48C145.441 59.8133 145.161 60.2667 145.028 60.84C144.948 61.12 144.895 61.5733 144.868 62.2C144.868 62.2533 144.895 62.28 144.948 62.28H150.128C150.181 62.28 150.208 62.2533 150.208 62.2C150.181 61.6 150.141 61.1733 150.088 60.92C149.941 60.32 149.641 59.8467 149.188 59.5C148.748 59.14 148.188 58.96 147.508 58.96ZM158.512 57.78C158.952 57.78 159.332 57.8667 159.652 58.04C159.759 58.0933 159.799 58.18 159.772 58.3L159.552 59.28C159.512 59.4133 159.425 59.4533 159.292 59.4C159.065 59.3067 158.805 59.26 158.512 59.26L158.252 59.28C157.559 59.3067 156.985 59.5667 156.532 60.06C156.079 60.54 155.852 61.1533 155.852 61.9V67.8C155.852 67.9333 155.785 68 155.652 68H154.632C154.499 68 154.432 67.9333 154.432 67.8V58.08C154.432 57.9467 154.499 57.88 154.632 57.88H155.652C155.785 57.88 155.852 57.9467 155.852 58.08V59.3C155.852 59.34 155.859 59.3667 155.872 59.38C155.899 59.38 155.919 59.3667 155.932 59.34C156.212 58.8467 156.565 58.4667 156.992 58.2C157.432 57.92 157.939 57.78 158.512 57.78Z" fill="black"/>
</svg>
