<svg width="70" height="70" viewBox="0 0 70 70" fill="none" xmlns="http://www.w3.org/2000/svg">
<rect width="70" height="70" rx="35" fill="white"/>
<path opacity="0.4" d="M49.25 35C49.25 42.8701 42.8701 49.25 35 49.25C27.1299 49.25 20.75 42.8701 20.75 35C20.75 27.1299 27.1299 20.75 35 20.75C42.8701 20.75 49.25 27.1299 49.25 35Z" stroke="black" stroke-width="1.5"/>
<path d="M32.3396 38.1838L32.8699 38.7141L33.4002 38.1838L41.1102 30.4738C41.2523 30.3317 41.4975 30.3317 41.6396 30.4738C41.7817 30.6159 41.7817 30.861 41.6396 31.0031L33.1346 39.5081C33.0636 39.5791 32.9687 39.6184 32.8699 39.6184C32.7711 39.6184 32.6762 39.5791 32.6052 39.5081L28.3602 35.2631C28.2181 35.121 28.2181 34.8759 28.3602 34.7338C28.5023 34.5917 28.7475 34.5917 28.8896 34.7338L32.3396 38.1838Z" fill="#292D32" stroke="black" stroke-width="1.5"/>
</svg>
